<svg width="39" height="35" viewBox="0 0 39 35" fill="none" xmlns="http://www.w3.org/2000/svg">
<path d="M1.496 24.52V8.636C1.496 6.23067 2.08267 4.33867 3.256 2.96C4.45867 1.58133 6.21867 0.891999 8.536 0.891999C10.8533 0.891999 12.6133 1.58133 13.816 2.96C15.0187 4.33867 15.62 6.23067 15.62 8.636V24.52C15.62 26.9253 15.0187 28.832 13.816 30.24C12.6133 31.6187 10.8533 32.308 8.536 32.308C6.248 32.308 4.50267 31.6187 3.3 30.24C2.09733 28.832 1.496 26.9253 1.496 24.52ZM4.884 8.46V24.74C4.884 27.7027 6.10133 29.184 8.536 29.184C10.9707 29.184 12.188 27.7027 12.188 24.74V8.46C12.188 5.468 10.9707 3.972 8.536 3.972C6.10133 3.972 4.884 5.468 4.884 8.46ZM25.1536 32V6.788C23.8629 7.58 22.4402 8.02 20.8856 8.108V5.292C22.4109 5.23333 23.5549 4.852 24.3176 4.148C25.0802 3.444 25.6962 2.46133 26.1656 1.2H28.5416V32H25.1536Z" fill="#FFB800"/>
</svg>
