<svg width="39" height="35" viewBox="0 0 39 35" fill="none" xmlns="http://www.w3.org/2000/svg">
<path d="M1.496 24.52V8.636C1.496 6.23067 2.08267 4.33867 3.256 2.96C4.45867 1.58133 6.21867 0.891999 8.536 0.891999C10.8533 0.891999 12.6133 1.58133 13.816 2.96C15.0187 4.33867 15.62 6.23067 15.62 8.636V24.52C15.62 26.9253 15.0187 28.832 13.816 30.24C12.6133 31.6187 10.8533 32.308 8.536 32.308C6.248 32.308 4.50267 31.6187 3.3 30.24C2.09733 28.832 1.496 26.9253 1.496 24.52ZM4.884 8.46V24.74C4.884 27.7027 6.10133 29.184 8.536 29.184C10.9707 29.184 12.188 27.7027 12.188 24.74V8.46C12.188 5.468 10.9707 3.972 8.536 3.972C6.10133 3.972 4.884 5.468 4.884 8.46ZM20.5776 3.004C21.7216 1.596 23.4522 0.891999 25.7696 0.891999C28.0869 0.891999 29.8176 1.58133 30.9616 2.96C32.1349 4.33867 32.7216 6.24533 32.7216 8.68C32.7216 10.3813 32.3549 12.0093 31.6216 13.564C30.9176 15.1187 30.0522 16.4827 29.0256 17.656C27.9989 18.8 26.9722 19.9293 25.9456 21.044C24.9482 22.1293 24.0829 23.3027 23.3496 24.564C22.6162 25.8253 22.2496 27.1013 22.2496 28.392V28.876H32.3696V32H18.8616V29.36C18.8616 27.5413 19.2136 25.8547 19.9176 24.3C20.6509 22.7453 21.5162 21.4107 22.5136 20.296C23.5402 19.152 24.5669 18.052 25.5936 16.996C26.6202 15.9107 27.4856 14.6787 28.1896 13.3C28.9229 11.892 29.2896 10.396 29.2896 8.812C29.2896 5.58533 28.0869 3.972 25.6816 3.972C23.2762 3.972 22.0736 5.48267 22.0736 8.504V11.232H18.8616V8.724C18.8616 6.28933 19.4336 4.38266 20.5776 3.004Z" fill="#FFB800"/>
</svg>
