<svg width="39" height="35" viewBox="0 0 39 35" fill="none" xmlns="http://www.w3.org/2000/svg">
<path d="M1.496 24.52V8.636C1.496 6.23067 2.08267 4.33867 3.256 2.96C4.45867 1.58133 6.21867 0.891999 8.536 0.891999C10.8533 0.891999 12.6133 1.58133 13.816 2.96C15.0187 4.33867 15.62 6.23067 15.62 8.636V24.52C15.62 26.9253 15.0187 28.832 13.816 30.24C12.6133 31.6187 10.8533 32.308 8.536 32.308C6.248 32.308 4.50267 31.6187 3.3 30.24C2.09733 28.832 1.496 26.9253 1.496 24.52ZM4.884 8.46V24.74C4.884 27.7027 6.10133 29.184 8.536 29.184C10.9707 29.184 12.188 27.7027 12.188 24.74V8.46C12.188 5.468 10.9707 3.972 8.536 3.972C6.10133 3.972 4.884 5.468 4.884 8.46ZM25.5936 0.891999C27.9109 0.891999 29.6416 1.58133 30.7856 2.96C31.9589 4.30933 32.5456 6.20133 32.5456 8.636V9.428C32.5456 12.7133 31.2989 14.8253 28.8056 15.764C31.2989 16.7027 32.5456 18.8293 32.5456 22.144V24.52C32.5456 26.9547 31.9589 28.8613 30.7856 30.24C29.6416 31.6187 27.9109 32.308 25.5936 32.308C23.3056 32.308 21.5749 31.6187 20.4016 30.24C19.2576 28.8613 18.6856 26.9547 18.6856 24.52V22.408H21.8976V24.74C21.8976 27.7027 23.1002 29.184 25.5056 29.184C27.9109 29.184 29.1136 27.6 29.1136 24.432V22.056C29.1136 19.0933 27.8229 17.568 25.2416 17.48H23.3936V14.4H25.4176C26.5909 14.3413 27.5002 13.96 28.1456 13.256C28.7909 12.5227 29.1136 11.496 29.1136 10.176V8.768C29.1136 5.57067 27.9109 3.972 25.5056 3.972C23.1002 3.972 21.8976 5.468 21.8976 8.46V10.044H18.6856V8.636C18.6856 6.20133 19.2576 4.30933 20.4016 2.96C21.5749 1.58133 23.3056 0.891999 25.5936 0.891999Z" fill="#FFB800"/>
</svg>
