<svg width="39" height="35" viewBox="0 0 39 35" fill="none" xmlns="http://www.w3.org/2000/svg">
<path d="M1.496 24.52V8.636C1.496 6.23067 2.08267 4.33867 3.256 2.96C4.45867 1.58133 6.21867 0.891999 8.536 0.891999C10.8533 0.891999 12.6133 1.58133 13.816 2.96C15.0187 4.33867 15.62 6.23067 15.62 8.636V24.52C15.62 26.9253 15.0187 28.832 13.816 30.24C12.6133 31.6187 10.8533 32.308 8.536 32.308C6.248 32.308 4.50267 31.6187 3.3 30.24C2.09733 28.832 1.496 26.9253 1.496 24.52ZM4.884 8.46V24.74C4.884 27.7027 6.10133 29.184 8.536 29.184C10.9707 29.184 12.188 27.7027 12.188 24.74V8.46C12.188 5.468 10.9707 3.972 8.536 3.972C6.10133 3.972 4.884 5.468 4.884 8.46ZM22.7776 4.28L22.2936 13.74C23.2909 12.0387 24.8162 11.188 26.8696 11.188C28.7762 11.188 30.1989 11.8333 31.1376 13.124C32.1056 14.4147 32.5896 16.204 32.5896 18.492V24.52C32.5896 26.9547 32.0029 28.8613 30.8296 30.24C29.6562 31.6187 27.9256 32.308 25.6376 32.308C23.3496 32.308 21.6189 31.6187 20.4456 30.24C19.3016 28.8613 18.7296 26.9547 18.7296 24.52V22.452H21.9416V24.74C21.9416 27.7027 23.1442 29.184 25.5496 29.184C27.9549 29.184 29.1576 27.7027 29.1576 24.74V18.756C29.1576 15.7933 27.9549 14.312 25.5496 14.312C23.5256 14.312 22.3669 15.412 22.0736 17.612V18.316H18.8616L19.6976 1.2H31.8416V4.28H22.7776Z" fill="#FFB800"/>
</svg>
