<svg width="39" height="35" viewBox="0 0 39 35" fill="none" xmlns="http://www.w3.org/2000/svg">
<path d="M1.496 24.52V8.636C1.496 6.23067 2.08267 4.33867 3.256 2.96C4.45867 1.58133 6.21867 0.891999 8.536 0.891999C10.8533 0.891999 12.6133 1.58133 13.816 2.96C15.0187 4.33867 15.62 6.23067 15.62 8.636V24.52C15.62 26.9253 15.0187 28.832 13.816 30.24C12.6133 31.6187 10.8533 32.308 8.536 32.308C6.248 32.308 4.50267 31.6187 3.3 30.24C2.09733 28.832 1.496 26.9253 1.496 24.52ZM4.884 8.46V24.74C4.884 27.7027 6.10133 29.184 8.536 29.184C10.9707 29.184 12.188 27.7027 12.188 24.74V8.46C12.188 5.468 10.9707 3.972 8.536 3.972C6.10133 3.972 4.884 5.468 4.884 8.46ZM25.7256 0.891999C28.0429 0.891999 29.7736 1.56667 30.9176 2.916C32.0909 4.26533 32.6776 6.15733 32.6776 8.592V9.164H29.4656V8.372C29.4656 5.43867 28.2482 3.972 25.8136 3.972C23.3202 3.972 22.0736 5.62933 22.0736 8.944V15.852C22.9536 13.652 24.6109 12.552 27.0456 12.552C28.9816 12.552 30.4189 13.1973 31.3576 14.488C32.2962 15.7787 32.7656 17.568 32.7656 19.856V24.52C32.7656 26.9253 32.1642 28.832 30.9616 30.24C29.7589 31.6187 28.0136 32.308 25.7256 32.308C23.4082 32.308 21.6482 31.6187 20.4456 30.24C19.2429 28.832 18.6416 26.9253 18.6416 24.52V8.812C18.6416 6.28933 19.2282 4.33867 20.4016 2.96C21.5749 1.58133 23.3496 0.891999 25.7256 0.891999ZM29.3776 20.12C29.3776 17.1573 28.1602 15.676 25.7256 15.676C23.2909 15.676 22.0736 17.1573 22.0736 20.12V24.74C22.0736 27.7027 23.2909 29.184 25.7256 29.184C28.1602 29.184 29.3776 27.7027 29.3776 24.74V20.12Z" fill="#FFB800"/>
</svg>
