<svg width="39" height="35" viewBox="0 0 39 35" fill="none" xmlns="http://www.w3.org/2000/svg">
<path d="M1.496 24.52V8.636C1.496 6.23067 2.08267 4.33867 3.256 2.96C4.45867 1.58133 6.21867 0.891999 8.536 0.891999C10.8533 0.891999 12.6133 1.58133 13.816 2.96C15.0187 4.33867 15.62 6.23067 15.62 8.636V24.52C15.62 26.9253 15.0187 28.832 13.816 30.24C12.6133 31.6187 10.8533 32.308 8.536 32.308C6.248 32.308 4.50267 31.6187 3.3 30.24C2.09733 28.832 1.496 26.9253 1.496 24.52ZM4.884 8.46V24.74C4.884 27.7027 6.10133 29.184 8.536 29.184C10.9707 29.184 12.188 27.7027 12.188 24.74V8.46C12.188 5.468 10.9707 3.972 8.536 3.972C6.10133 3.972 4.884 5.468 4.884 8.46ZM20.3136 2.916C21.5749 1.56667 23.3789 0.891999 25.7256 0.891999C28.0722 0.891999 29.8616 1.56667 31.0936 2.916C32.3549 4.236 32.9856 6.09866 32.9856 8.504V9.472C32.9856 12.7867 31.8122 14.8987 29.4656 15.808C31.8122 16.7467 32.9856 18.9173 32.9856 22.32V24.608C32.9856 27.0133 32.3549 28.9053 31.0936 30.284C29.8616 31.6333 28.0722 32.308 25.7256 32.308C23.3789 32.308 21.5749 31.6333 20.3136 30.284C19.0816 28.9053 18.4656 27.0133 18.4656 24.608V22.32C18.4656 18.9467 19.6536 16.776 22.0296 15.808C19.6536 14.8987 18.4656 12.7867 18.4656 9.472V8.504C18.4656 6.09866 19.0816 4.236 20.3136 2.916ZM29.5976 8.592C29.5976 5.512 28.3069 3.972 25.7256 3.972C23.1442 3.972 21.8536 5.512 21.8536 8.592V10.088C21.8536 12.9627 23.1442 14.4 25.7256 14.4C28.3069 14.4 29.5976 12.9627 29.5976 10.088V8.592ZM29.5976 21.924C29.5976 18.9613 28.3069 17.48 25.7256 17.48C23.1442 17.48 21.8536 18.9613 21.8536 21.924V24.52C21.8536 27.6293 23.1442 29.184 25.7256 29.184C28.2776 29.184 29.5682 27.6293 29.5976 24.52V21.924Z" fill="#FFB800"/>
</svg>
