<svg width="39" height="35" viewBox="0 0 39 35" fill="none" xmlns="http://www.w3.org/2000/svg">
<path d="M1.496 24.52V8.636C1.496 6.23067 2.08267 4.33867 3.256 2.96C4.45867 1.58133 6.21867 0.891999 8.536 0.891999C10.8533 0.891999 12.6133 1.58133 13.816 2.96C15.0187 4.33867 15.62 6.23067 15.62 8.636V24.52C15.62 26.9253 15.0187 28.832 13.816 30.24C12.6133 31.6187 10.8533 32.308 8.536 32.308C6.248 32.308 4.50267 31.6187 3.3 30.24C2.09733 28.832 1.496 26.9253 1.496 24.52ZM4.884 8.46V24.74C4.884 27.7027 6.10133 29.184 8.536 29.184C10.9707 29.184 12.188 27.7027 12.188 24.74V8.46C12.188 5.468 10.9707 3.972 8.536 3.972C6.10133 3.972 4.884 5.468 4.884 8.46ZM20.3136 2.96C21.5162 1.58133 23.2762 0.891999 25.5936 0.891999C27.9109 0.891999 29.6709 1.58133 30.8736 2.96C32.0762 4.33867 32.6776 6.23067 32.6776 8.636V24.344C32.6776 26.8667 32.0909 28.832 30.9176 30.24C29.7442 31.6187 27.9549 32.308 25.5496 32.308C23.2616 32.308 21.5309 31.6333 20.3576 30.284C19.1842 28.9053 18.5976 26.9987 18.5976 24.564V23.992H21.8096V24.784C21.8096 27.7173 23.0269 29.184 25.4616 29.184C27.9842 29.184 29.2456 27.5413 29.2456 24.256V17.348C28.3949 19.5187 26.7376 20.604 24.2736 20.604C22.3376 20.604 20.9002 19.9733 19.9616 18.712C19.0229 17.4213 18.5536 15.632 18.5536 13.344V8.636C18.5536 6.23067 19.1402 4.33867 20.3136 2.96ZM29.2456 8.46C29.2456 5.49733 28.0282 4.016 25.5936 4.016C23.1589 4.016 21.9416 5.49733 21.9416 8.46V13.08C21.9416 16.0427 23.1589 17.524 25.5936 17.524C28.0282 17.524 29.2456 16.0427 29.2456 13.08V8.46Z" fill="#FFB800"/>
</svg>
