<svg width="39" height="35" viewBox="0 0 39 35" fill="none" xmlns="http://www.w3.org/2000/svg">
<path d="M8.052 32V6.788C6.76133 7.58 5.33867 8.02 3.784 8.108V5.292C5.30933 5.23333 6.45333 4.852 7.216 4.148C7.97867 3.444 8.59467 2.46133 9.064 1.2H11.44V32H8.052ZM16.3632 24.52V8.636C16.3632 6.23067 16.9499 4.33867 18.1232 2.96C19.3259 1.58133 21.0859 0.891999 23.4032 0.891999C25.7205 0.891999 27.4805 1.58133 28.6832 2.96C29.8859 4.33867 30.4872 6.23067 30.4872 8.636V24.52C30.4872 26.9253 29.8859 28.832 28.6832 30.24C27.4805 31.6187 25.7205 32.308 23.4032 32.308C21.1152 32.308 19.3699 31.6187 18.1672 30.24C16.9645 28.832 16.3632 26.9253 16.3632 24.52ZM19.7512 8.46V24.74C19.7512 27.7027 20.9685 29.184 23.4032 29.184C25.8379 29.184 27.0552 27.7027 27.0552 24.74V8.46C27.0552 5.468 25.8379 3.972 23.4032 3.972C20.9685 3.972 19.7512 5.468 19.7512 8.46Z" fill="#FFB800"/>
</svg>
