<svg width="119" height="27" viewBox="0 0 119 27" fill="none" xmlns="http://www.w3.org/2000/svg">
<path d="M117.981 4.87766C118.118 4.89247 118.217 5.01575 118.203 5.15303L117.961 7.39005C117.947 7.52733 117.823 7.62661 117.686 7.6118C117.549 7.597 117.449 7.47371 117.464 7.33643L117.679 5.34797L115.69 5.13349C115.553 5.11869 115.454 4.9954 115.469 4.85812C115.483 4.72085 115.607 4.62157 115.744 4.63637L117.981 4.87766ZM1.94883 0.849752C2.34095 1.37172 2.74773 1.88563 3.16873 2.3914L2.78444 2.71128C2.35821 2.19923 1.94626 1.6788 1.54907 1.15007L1.94883 0.849752ZM5.83298 5.29914C6.75592 6.2176 7.72905 7.10475 8.74907 7.95998L8.42782 8.34313C7.39734 7.47912 6.41368 6.58241 5.48029 5.65356L5.83298 5.29914ZM11.8669 10.3725C12.9248 11.1287 14.0223 11.8552 15.1568 12.5515L14.8952 12.9777C13.7512 12.2754 12.6438 11.5425 11.5761 10.7793L11.8669 10.3725ZM18.5878 14.5071C19.7397 15.1164 20.9227 15.6976 22.1343 16.2501L21.9268 16.705C20.7066 16.1486 19.5148 15.5631 18.354 14.9491L18.5878 14.5071ZM25.7748 17.791C26.9906 18.2676 28.2305 18.7173 29.4921 19.1398L29.3333 19.6139C28.0639 19.1888 26.8162 18.7362 25.5924 18.2565L25.7748 17.791ZM33.2716 20.3054C34.5306 20.6615 35.8078 20.9918 37.1013 21.2958L36.9869 21.7825C35.6863 21.4769 34.4018 21.1447 33.1355 20.7865L33.2716 20.3054ZM40.9711 22.1176C42.2587 22.3626 43.5597 22.5824 44.8722 22.7766L44.799 23.2712C43.4798 23.076 42.172 22.8551 40.8776 22.6088L40.9711 22.1176ZM48.7972 23.2773C50.1025 23.4176 51.4171 23.5331 52.7391 23.6234L52.705 24.1223C51.3766 24.0315 50.0556 23.9155 48.7437 23.7745L48.7972 23.2773ZM56.6916 23.8176C58.0058 23.8572 59.3254 23.872 60.6488 23.8619L60.6526 24.3619C59.3229 24.3721 57.997 24.3571 56.6765 24.3174L56.6916 23.8176ZM64.605 23.7575C65.9201 23.6981 67.2371 23.614 68.5546 23.5048L68.5959 24.0031C67.2722 24.1128 65.9489 24.1973 64.6276 24.257L64.605 23.7575ZM72.4918 23.1038C73.7999 22.9456 75.1067 22.7624 76.4108 22.5539L76.4897 23.0476C75.1793 23.2571 73.8662 23.4412 72.5518 23.6002L72.4918 23.1038ZM80.3054 21.8539C81.5984 21.5954 82.8869 21.3116 84.1694 21.0021L84.2867 21.4882C82.9978 21.7992 81.7028 22.0845 80.4034 22.3442L80.3054 21.8539ZM87.9959 19.9968C89.2646 19.6357 90.5257 19.2488 91.7775 18.8356L91.9342 19.3104C90.6757 19.7258 89.408 20.1148 88.1327 20.4777L87.9959 19.9968ZM95.5067 17.516C96.7408 17.0491 97.964 16.5558 99.1747 16.0355L99.3721 16.4949C98.1545 17.0181 96.9245 17.5142 95.6836 17.9836L95.5067 17.516ZM102.772 14.3918C103.959 13.8162 105.132 13.2133 106.288 12.5828L106.528 13.0219C105.364 13.6562 104.184 14.2627 102.99 14.8417L102.772 14.3918ZM109.713 10.6068C110.838 9.92016 111.946 9.20561 113.035 8.46289L113.316 8.87592C112.221 9.62349 111.106 10.3426 109.974 11.0336L109.713 10.6068ZM116.241 6.15092C116.765 5.75156 117.284 5.3451 117.797 4.9315L118.111 5.32093C117.594 5.73735 117.071 6.14657 116.544 6.54862L116.241 6.15092ZM118.008 4.6291C118.282 4.65871 118.481 4.90529 118.451 5.17984L117.969 9.65389C117.939 9.92844 117.692 10.127 117.418 10.0974C117.143 10.0678 116.945 9.8212 116.974 9.54665L117.403 5.56972L113.426 5.14077C113.152 5.11115 112.953 4.86458 112.983 4.59003C113.013 4.31548 113.259 4.11692 113.534 4.14653L118.008 4.6291ZM2.14871 0.699594C2.53829 1.21818 2.94249 1.72883 3.36087 2.23146L2.59229 2.87122C2.16345 2.35603 1.74892 1.83234 1.34918 1.30022L2.14871 0.699594ZM6.00933 5.12194C6.92705 6.03519 7.89491 6.91757 8.90969 7.76841L8.2672 8.5347C7.23148 7.6663 6.24255 6.76481 5.30394 5.83076L6.00933 5.12194ZM12.0123 10.1691C13.0652 10.9218 14.1579 11.6451 15.2876 12.3385L14.7644 13.1907C13.6156 12.4856 12.5034 11.7494 11.4308 10.9826L12.0123 10.1691ZM18.7047 14.2861C19.8521 14.8931 21.0307 15.4721 22.238 16.0226L21.8231 16.9325C20.5986 16.3741 19.4024 15.7865 18.2371 15.1701L18.7047 14.2861ZM25.8661 17.5582C27.0779 18.0333 28.3138 18.4816 29.5715 18.9027L29.254 19.8509C27.9807 19.4246 26.7289 18.9706 25.5011 18.4892L25.8661 17.5582ZM33.3396 20.0648C34.595 20.42 35.8686 20.7493 37.1585 21.0524L36.9297 22.0259C35.6255 21.7194 34.3374 21.3863 33.0674 21.0271L33.3396 20.0648ZM41.0178 21.872C42.302 22.1164 43.5997 22.3356 44.9088 22.5293L44.7625 23.5185C43.4399 23.3228 42.1287 23.1013 40.8309 22.8544L41.0178 21.872ZM48.8239 23.0288C50.126 23.1687 51.4373 23.2839 52.7561 23.374L52.6879 24.3717C51.3563 24.2807 50.0321 24.1644 48.717 24.023L48.8239 23.0288ZM56.6991 23.5678C58.0101 23.6072 59.3266 23.622 60.6469 23.6119L60.6545 24.6119C59.3217 24.6221 57.9926 24.6071 56.669 24.5673L56.6991 23.5678ZM64.5938 23.5077C65.9057 23.4485 67.2196 23.3646 68.534 23.2557L68.6165 24.2523C67.2897 24.3622 65.9633 24.4469 64.6389 24.5067L64.5938 23.5077ZM72.4618 22.8557C73.7667 22.6978 75.0704 22.515 76.3713 22.307L76.5292 23.2945C75.2157 23.5045 73.8993 23.689 72.5819 23.8484L72.4618 22.8557ZM80.2564 21.6087C81.5462 21.3509 82.8315 21.0678 84.1108 20.7591L84.3454 21.7312C83.0532 22.043 81.755 22.329 80.4524 22.5893L80.2564 21.6087ZM87.9275 19.7563C89.1929 19.3962 90.4507 19.0103 91.6992 18.5982L92.0126 19.5478C90.7507 19.9643 89.4797 20.3543 88.2012 20.7181L87.9275 19.7563ZM95.4183 17.2821C96.6489 16.8166 97.8687 16.3246 99.076 15.8058L99.4708 16.7246C98.2498 17.2493 97.0163 17.7468 95.7721 18.2174L95.4183 17.2821ZM102.663 14.1669C103.846 13.5929 105.015 12.9918 106.169 12.3633L106.647 13.2414C105.48 13.8776 104.297 14.4859 103.099 15.0666L102.663 14.1669ZM109.583 10.3934C110.705 9.70893 111.809 8.99667 112.894 8.25637L113.457 9.08244C112.358 9.83243 111.24 10.5539 110.104 11.247L109.583 10.3934ZM116.089 5.95206C116.611 5.55405 117.129 5.14897 117.641 4.73679L118.268 5.51565C117.749 5.93348 117.225 6.34408 116.695 6.74747L116.089 5.95206Z" fill="#BDBDBD"/>
</svg>
