<svg width="103" height="24" viewBox="0 0 103 24" fill="none" xmlns="http://www.w3.org/2000/svg">
<path d="M101.549 23.0013C101.687 22.996 101.795 22.8798 101.79 22.7419L101.704 20.4935C101.698 20.3556 101.582 20.248 101.444 20.2533C101.306 20.2586 101.199 20.3747 101.204 20.5127L101.28 22.5112L99.2819 22.5877C99.1439 22.593 99.0364 22.7091 99.0417 22.8471C99.0469 22.9851 99.1631 23.0927 99.301 23.0874L101.549 23.0013ZM1.18834 19.3457C1.61183 18.86 2.05126 18.3845 2.50602 17.9193L2.14848 17.5698C1.68721 18.0416 1.24134 18.5241 0.811476 19.0171L1.18834 19.3457ZM5.3741 15.2853C6.36103 14.4691 7.40041 13.6916 8.48805 12.9532L8.2072 12.5395C7.1071 13.2864 6.05505 14.0733 5.05546 14.8999L5.3741 15.2853ZM11.8058 10.9038C12.9256 10.2748 14.0852 9.68156 15.281 9.12461L15.0699 8.67136C13.8631 9.23344 12.6922 9.83238 11.5609 10.4678L11.8058 10.9038ZM18.869 7.60298C20.069 7.14109 21.2984 6.71233 22.554 6.31705L22.4039 5.84013C21.1386 6.23843 19.8994 6.6706 18.6894 7.13635L18.869 7.60298ZM26.3132 5.25303C27.5644 4.93697 28.837 4.65205 30.128 4.3986L30.0317 3.90796C28.7321 4.1631 27.4508 4.44996 26.1907 4.76826L26.3132 5.25303ZM33.9809 3.74342C35.2597 3.55866 36.5531 3.40349 37.8587 3.27819L37.811 2.78048C36.4976 2.90653 35.1962 3.06264 33.9094 3.24856L33.9809 3.74342ZM41.7558 2.99482C43.0497 2.93036 44.3528 2.89455 45.6628 2.88763L45.6601 2.38764C44.3428 2.3946 43.0323 2.43061 41.7309 2.49544L41.7558 2.99482ZM49.5714 2.95229C50.8687 3.00191 52.1703 3.07962 53.474 3.18564L53.5145 2.68729C52.2037 2.58068 50.8949 2.50255 49.5905 2.45265L49.5714 2.95229ZM57.3631 3.58565C58.6534 3.74623 59.9436 3.93469 61.2316 4.15124L61.3145 3.65816C60.0195 3.44042 58.7222 3.25094 57.4249 3.08948L57.3631 3.58565ZM65.0721 4.88223C66.3453 5.15321 67.6143 5.45214 68.8769 5.77922L69.0022 5.2952C67.7325 4.96627 66.4565 4.66567 65.1762 4.39318L65.0721 4.88223ZM72.6378 6.84347C73.8832 7.22626 75.12 7.63729 76.3463 8.07679L76.515 7.60611C75.2814 7.16399 74.0373 6.75054 72.7848 6.36554L72.6378 6.84347ZM79.993 9.48146C81.1979 9.97882 82.3901 10.5049 83.5675 11.06L83.7807 10.6077C82.5958 10.0491 81.3961 9.51971 80.1838 9.01929L79.993 9.48146ZM87.0583 12.8147C88.2074 13.4297 89.3396 14.0741 90.4528 14.7479L90.7117 14.3202C89.5908 13.6417 88.451 12.993 87.2942 12.3739L87.0583 12.8147ZM93.7373 16.8613C94.8125 17.5961 95.8665 18.3607 96.8972 19.1554L97.2025 18.7595C96.1641 17.9588 95.1024 17.1885 94.0194 16.4485L93.7373 16.8613ZM99.917 21.63C100.408 22.0574 100.892 22.4923 101.37 22.9349L101.71 22.568C101.228 22.122 100.74 21.6836 100.245 21.2529L99.917 21.63ZM101.559 23.2511C101.835 23.2405 102.05 23.0082 102.039 22.7323L101.867 18.2356C101.857 17.9597 101.624 17.7445 101.348 17.7551C101.073 17.7657 100.857 17.9979 100.868 18.2739L101.021 22.2709L97.024 22.424C96.7481 22.4346 96.5329 22.6669 96.5435 22.9428C96.5541 23.2187 96.7863 23.4339 97.0623 23.4233L101.559 23.2511ZM1.37677 19.51C1.79708 19.0279 2.23328 18.5559 2.68478 18.0941L1.96971 17.395C1.50519 17.8702 1.05609 18.3561 0.623044 18.8528L1.37677 19.51ZM5.53342 15.4779C6.51401 14.667 7.54706 13.8942 8.62848 13.16L8.06678 12.3327C6.96044 13.0838 5.90207 13.8754 4.89614 14.7073L5.53342 15.4779ZM11.9283 11.1217C13.0423 10.4959 14.1962 9.90562 15.3865 9.35123L14.9643 8.44473C13.752 9.00938 12.5755 9.61119 11.4385 10.2499L11.9283 11.1217ZM18.9588 7.83629C20.1538 7.37633 21.3782 6.94928 22.6291 6.55552L22.3288 5.60166C21.0587 6.00148 19.8146 6.43536 18.5996 6.90304L18.9588 7.83629ZM26.3744 5.49542C27.6212 5.18047 28.8894 4.89653 30.1762 4.64392L29.9836 3.66265C28.6797 3.91862 27.3941 4.20645 26.1295 4.52587L26.3744 5.49542ZM34.0167 3.99085C35.2915 3.80667 36.5809 3.65198 37.8826 3.52705L37.7871 2.53162C36.4698 2.65805 35.1645 2.81463 33.8737 3.00113L34.0167 3.99085ZM41.7682 3.24451C43.0584 3.18024 44.3578 3.14453 45.6641 3.13763L45.6588 2.13764C44.3378 2.14462 43.0236 2.18073 41.7184 2.24575L41.7682 3.24451ZM49.5619 3.20211C50.8555 3.25159 52.1536 3.32908 53.4537 3.43482L53.5348 2.43811C52.2204 2.33122 50.9081 2.25287 49.6001 2.20284L49.5619 3.20211ZM57.3323 3.83373C58.619 3.99388 59.9057 4.18182 61.1902 4.39778L61.356 3.41162C60.0574 3.19329 58.7566 3.00329 57.4558 2.84139L57.3323 3.83373ZM65.02 5.12675C66.2898 5.39698 67.5552 5.69508 68.8142 6.02123L69.0649 5.05319C67.7917 4.72333 66.5121 4.4219 65.2282 4.14866L65.02 5.12675ZM72.5644 7.08244C73.8061 7.46411 75.0393 7.87395 76.262 8.31213L76.5994 7.37076C75.3621 6.92734 74.1143 6.51268 72.8582 6.12657L72.5644 7.08244ZM79.8976 9.71255C81.0988 10.2084 82.2872 10.7328 83.4609 11.2861L83.8873 10.3816C82.6986 9.82119 81.4952 9.29015 80.2792 8.78821L79.8976 9.71255ZM86.9403 13.0351C88.0856 13.6481 89.214 14.2903 90.3233 14.9618L90.8412 14.1063C89.7165 13.4255 88.5728 12.7746 87.4122 12.1535L86.9403 13.0351ZM93.5962 17.0677C94.6676 17.7998 95.7177 18.5617 96.7445 19.3534L97.3552 18.5615C96.3129 17.7578 95.2473 16.9848 94.1605 16.242L93.5962 17.0677ZM99.7528 21.8185C100.242 22.2442 100.724 22.6775 101.2 23.1183L101.88 22.3846C101.396 21.9368 100.906 21.4967 100.41 21.0644L99.7528 21.8185Z" fill="#BDBDBD"/>
</svg>
