<svg width="131" height="31" viewBox="0 0 131 31" fill="none" xmlns="http://www.w3.org/2000/svg">
<path d="M129.949 24.3948C130.087 24.3791 130.185 24.2552 130.17 24.118L129.914 21.8826C129.898 21.7454 129.775 21.6469 129.637 21.6626C129.5 21.6782 129.402 21.8021 129.417 21.9393L129.644 23.9264L127.657 24.1534C127.52 24.1691 127.422 24.293 127.437 24.4302C127.453 24.5674 127.577 24.6659 127.714 24.6502L129.949 24.3948ZM2.12614 29.4158C2.5312 28.8736 2.95065 28.3392 3.38408 27.8127L2.99804 27.4949C2.55971 28.0274 2.1354 28.568 1.72557 29.1166L2.12614 29.4158ZM6.12123 24.7769C7.06834 23.8145 8.06516 22.8825 9.10864 21.9815L8.78186 21.6031C7.72852 22.5126 6.7218 23.4538 5.76486 24.4261L6.12123 24.7769ZM12.3057 19.424C13.3896 18.6198 14.5135 17.8446 15.6746 17.0989L15.4044 16.6782C14.2341 17.4298 13.101 18.2113 12.0078 19.0224L12.3057 19.424ZM19.1857 14.9959C20.3652 14.3373 21.5764 13.7062 22.8169 13.1031L22.5983 12.6534C21.3495 13.2606 20.1299 13.896 18.9419 14.5594L19.1857 14.9959ZM26.5476 11.4104C27.7944 10.8833 29.0661 10.3825 30.3607 9.90836L30.1887 9.43885C28.8867 9.91571 27.6074 10.4195 26.3529 10.9499L26.5476 11.4104ZM34.2418 8.58819C35.5354 8.18071 36.8484 7.7986 38.1789 7.4422L38.0495 6.95923C36.7122 7.31747 35.3922 7.7016 34.0916 8.11128L34.2418 8.58819ZM42.1619 6.46368C43.4869 6.16682 44.8267 5.8946 46.1793 5.64735L46.0894 5.1555C44.7303 5.40392 43.3841 5.67745 42.0526 5.97578L42.1619 6.46368ZM50.2249 4.98785C51.571 4.79461 52.9277 4.62555 54.2934 4.481L54.2407 3.98378C52.869 4.12898 51.5061 4.29879 50.1539 4.49292L50.2249 4.98785ZM58.3784 4.12369C59.7372 4.02957 61.103 3.95944 62.4743 3.91357L62.4576 3.41385C61.0804 3.45992 59.7086 3.53036 58.3438 3.62488L58.3784 4.12369ZM66.5757 3.849C67.9396 3.8516 69.3073 3.87815 70.6772 3.92894L70.6957 3.42928C69.3199 3.37828 67.9464 3.35161 66.5767 3.349L66.5757 3.849ZM74.7735 4.15293C76.1352 4.25143 77.4976 4.37404 78.8592 4.52103L78.9129 4.02392C77.5454 3.87629 76.1771 3.75316 74.8095 3.65423L74.7735 4.15293ZM82.929 5.03376C84.281 5.22868 85.6308 5.448 86.9768 5.69198L87.066 5.2C85.714 4.95493 84.3583 4.73465 83.0004 4.53888L82.929 5.03376ZM90.998 6.49727C92.3332 6.79037 93.6632 7.10833 94.9866 7.4514L95.1121 6.9674C93.7825 6.62274 92.4464 6.30333 91.1052 6.0089L90.998 6.49727ZM98.9358 8.55637C100.245 8.95021 101.547 9.36946 102.839 9.81438L103.001 9.34163C101.703 8.89454 100.396 8.47327 99.0798 8.07755L98.9358 8.55637ZM106.687 11.2277C107.961 11.7253 109.224 12.2489 110.474 12.7988L110.675 12.3411C109.419 11.7884 108.149 11.2621 106.869 10.762L106.687 11.2277ZM114.189 14.5298C115.416 15.1342 116.628 15.7652 117.825 16.4231L118.066 15.985C116.863 15.3234 115.644 14.6889 114.41 14.0813L114.189 14.5298ZM121.37 18.48C122.536 19.1931 123.684 19.9334 124.814 20.7013L125.095 20.2878C123.959 19.5153 122.803 18.7707 121.631 18.0535L121.37 18.48ZM128.145 23.0871C128.69 23.4985 129.231 23.9168 129.766 24.3421L130.077 23.9507C129.538 23.5227 128.995 23.1018 128.446 22.6879L128.145 23.0871ZM129.978 24.6432C130.252 24.6118 130.449 24.364 130.418 24.0896L129.907 19.6187C129.876 19.3444 129.628 19.1474 129.354 19.1787C129.079 19.2101 128.882 19.4579 128.914 19.7322L129.368 23.7064L125.393 24.1604C125.119 24.1918 124.922 24.4396 124.953 24.7139C124.985 24.9883 125.233 25.1853 125.507 25.154L129.978 24.6432ZM2.32642 29.5655C2.72909 29.0264 3.14612 28.4951 3.57709 27.9715L2.80502 27.336C2.36424 27.8715 1.93751 28.4152 1.52529 28.967L2.32642 29.5655ZM6.29941 24.9522C7.24161 23.9949 8.23348 23.0675 9.27202 22.1707L8.61847 21.4139C7.5602 22.3276 6.54853 23.2735 5.58668 24.2508L6.29941 24.9522ZM12.4547 19.6247C13.5339 18.824 14.6531 18.052 15.8097 17.3092L15.2693 16.4678C14.0945 17.2223 12.9567 18.0071 11.8589 18.8216L12.4547 19.6247ZM19.3076 15.2142C20.4828 14.558 21.6898 13.9291 22.9262 13.328L22.489 12.4286C21.2361 13.0377 20.0123 13.6754 18.8201 14.3411L19.3076 15.2142ZM26.645 11.6407C27.8879 11.1152 29.1558 10.6159 30.4466 10.1431L30.1027 9.2041C28.797 9.68233 27.5139 10.1876 26.2556 10.7196L26.645 11.6407ZM34.3169 8.82664C35.607 8.42027 36.9166 8.03917 38.2436 7.68369L37.9848 6.71775C36.6441 7.0769 35.3206 7.46204 34.0164 7.87283L34.3169 8.82664ZM42.2165 6.70764C43.5383 6.4115 44.8748 6.13994 46.2242 5.89327L46.0444 4.90957C44.6822 5.15858 43.3327 5.43277 41.9979 5.73183L42.2165 6.70764ZM50.2605 5.23531C51.6035 5.04251 52.9571 4.87384 54.3197 4.72961L54.2144 3.73517C52.8396 3.88069 51.4737 4.05089 50.1184 4.24546L50.2605 5.23531ZM58.3957 4.37309C59.7515 4.27918 61.1143 4.2092 62.4827 4.16343L62.4493 3.16399C61.0691 3.21016 59.6943 3.28075 58.3266 3.37548L58.3957 4.37309ZM66.5752 4.099C67.9362 4.10159 69.3009 4.12809 70.6679 4.17877L70.705 3.17946C69.3263 3.12834 67.9498 3.10161 66.5771 3.099L66.5752 4.099ZM74.7554 4.40228C76.1142 4.50057 77.4737 4.62291 78.8324 4.76958L78.9397 3.77536C77.5692 3.62742 76.198 3.50402 74.8276 3.40489L74.7554 4.40228ZM82.8934 5.2812C84.2424 5.47569 85.5892 5.69453 86.9322 5.93797L87.1106 4.95401C85.7556 4.7084 84.3969 4.48763 83.0361 4.29143L82.8934 5.2812ZM90.9444 6.74146C92.2766 7.03389 93.6035 7.35112 94.9238 7.6934L95.1748 6.7254C93.8422 6.37994 92.5031 6.05981 91.1588 5.76471L90.9444 6.74146ZM98.8638 8.79578C100.17 9.18868 101.469 9.60692 102.757 10.0508L103.083 9.10526C101.782 8.65708 100.471 8.2348 99.1518 7.83815L98.8638 8.79578ZM106.596 11.4606C107.867 11.9569 109.126 12.4792 110.373 13.0276L110.776 12.1123C109.516 11.5581 108.244 11.0305 106.96 10.5291L106.596 11.4606ZM114.079 14.7541C115.302 15.3568 116.511 15.9861 117.705 16.6422L118.186 15.7659C116.98 15.1025 115.757 14.4663 114.521 13.8571L114.079 14.7541ZM121.24 18.6933C122.402 19.4043 123.547 20.1425 124.673 20.908L125.236 20.081C124.096 19.3063 122.937 18.5595 121.762 17.8402L121.24 18.6933ZM127.994 23.2866C128.538 23.6968 129.077 24.1138 129.61 24.5378L130.232 23.755C129.692 23.3257 129.147 22.9035 128.597 22.4884L127.994 23.2866Z" fill="#BDBDBD"/>
</svg>
