<svg width="109" height="68" viewBox="0 0 109 68" fill="none" xmlns="http://www.w3.org/2000/svg">
<path d="M107.628 45.4735C107.755 45.5291 107.812 45.6766 107.756 45.803L106.85 47.8623C106.794 47.9887 106.647 48.046 106.52 47.9904C106.394 47.9348 106.337 47.7872 106.392 47.6609L107.198 45.8304L105.367 45.0246C105.241 44.969 105.184 44.8215 105.239 44.6951C105.295 44.5687 105.443 44.5114 105.569 44.567L107.628 45.4735ZM10.9632 0.959924C11.0697 1.61542 11.1918 2.26792 11.329 2.91719L10.8398 3.02056C10.701 2.36368 10.5775 1.70346 10.4696 1.04015L10.9632 0.959924ZM12.3305 6.76966C12.7215 8.0348 13.17 9.28534 13.6732 10.5195L13.2102 10.7082C12.7016 9.46094 12.2482 8.19669 11.8528 6.91732L12.3305 6.76966ZM15.329 14.1403C15.9269 15.3178 16.575 16.4777 17.2708 17.6183L16.844 17.8787C16.1416 16.7273 15.4871 15.556 14.8832 14.3666L15.329 14.1403ZM19.4711 20.9418C20.2396 22.0158 21.0512 23.0698 21.9035 24.1022L21.5179 24.4205C20.6585 23.3795 19.8399 22.3163 19.0645 21.2327L19.4711 20.9418ZM24.5436 27.0939C25.4498 28.0562 26.3923 28.9964 27.3691 29.913L27.0269 30.2776C26.0428 29.354 25.0929 28.4066 24.1796 27.4366L24.5436 27.0939ZM30.3567 32.5546C31.3722 33.401 32.4181 34.2236 33.4924 35.021L33.1944 35.4225C32.1127 34.6196 31.0594 33.7912 30.0366 32.9387L30.3567 32.5546ZM36.7606 37.3109C37.8648 38.0409 38.9942 38.7455 40.1471 39.4234L39.8937 39.8544C38.7333 39.1721 37.5964 38.4629 36.4848 37.728L36.7606 37.3109ZM43.6393 41.3574C44.8146 41.9695 46.0107 42.5547 47.2257 43.1116L47.0173 43.5661C45.7947 43.0057 44.5911 42.4169 43.4083 41.8008L43.6393 41.3574ZM50.8955 44.6843C52.1271 45.1764 53.3755 45.6399 54.6387 46.0737L54.4763 46.5466C53.2053 46.1101 51.9493 45.6438 50.71 45.1487L50.8955 44.6843ZM58.4457 47.2773C59.7206 47.6461 61.0083 47.9849 62.3072 48.2924L62.1921 48.7789C60.8851 48.4695 59.5894 48.1287 58.3068 47.7576L58.4457 47.2773ZM66.214 49.1161C67.5193 49.3577 68.834 49.5677 70.1565 49.745L70.0901 50.2406C68.7593 50.0622 67.4364 49.8509 66.1229 49.6077L66.214 49.1161ZM74.1254 50.1759C75.4483 50.2859 76.7773 50.3627 78.1108 50.4054L78.0948 50.9052C76.7528 50.8622 75.4153 50.7849 74.084 50.6742L74.1254 50.1759ZM82.1025 50.4303C83.4291 50.4042 84.7587 50.3437 86.0897 50.2476L86.1257 50.7463C84.7859 50.843 83.4476 50.9039 82.1123 50.9302L82.1025 50.4303ZM90.0615 49.8551C91.377 49.6897 92.6924 49.4887 94.0063 49.2511L94.0953 49.7431C92.7724 49.9823 91.4482 50.1847 90.1239 50.3512L90.0615 49.8551ZM97.9125 48.4349C99.2009 48.1288 100.487 47.7865 101.768 47.4069L101.91 47.8863C100.62 48.2685 99.3253 48.6132 98.028 48.9214L97.9125 48.4349ZM105.561 46.1687C106.188 45.9448 106.813 45.7117 107.437 45.4693L107.618 45.9353C106.99 46.1794 106.36 46.4142 105.729 46.6395L105.561 46.1687ZM107.729 45.2446C107.982 45.3559 108.096 45.651 107.985 45.9037L106.172 50.0224C106.061 50.2751 105.766 50.3898 105.513 50.2786C105.26 50.1673 105.146 49.8722 105.257 49.6195L106.868 45.9585L103.207 44.347C102.955 44.2357 102.84 43.9406 102.951 43.6879C103.062 43.4352 103.358 43.3205 103.61 43.4317L107.729 45.2446ZM11.2099 0.919809C11.3158 1.5714 11.4372 2.22004 11.5736 2.8655L10.5952 3.07225C10.4556 2.41156 10.3313 1.74748 10.2229 1.08027L11.2099 0.919809ZM12.5693 6.69583C12.9582 7.95385 13.4042 9.19753 13.9047 10.4251L12.9787 10.8026C12.4675 9.54874 12.0116 8.27763 11.6139 6.99115L12.5693 6.69583ZM15.5519 14.0271C16.1468 15.1986 16.7917 16.3529 17.4842 17.4881L16.6306 18.0089C15.9248 16.8521 15.2672 15.6751 14.6603 14.4798L15.5519 14.0271ZM19.6744 20.7963C20.4395 21.8655 21.2476 22.915 22.0963 23.943L21.3252 24.5797C20.4621 23.5343 19.64 22.4666 18.8612 21.3782L19.6744 20.7963ZM24.7256 26.9225C25.6282 27.8809 26.5671 28.8175 27.5401 29.7307L26.8558 30.4599C25.868 29.5329 24.9145 28.5818 23.9976 27.608L24.7256 26.9225ZM30.5168 32.3626C31.5286 33.2059 32.5708 34.0256 33.6414 34.8202L33.0455 35.6232C31.9599 34.8176 30.903 33.9863 29.8765 33.1308L30.5168 32.3626ZM36.8985 37.1023C37.9989 37.8299 39.1247 38.5322 40.2738 39.2079L39.767 40.0699C38.6028 39.3854 37.4622 38.6739 36.3469 37.9365L36.8985 37.1023ZM43.7548 41.1357C44.9264 41.7459 46.1186 42.3291 47.3298 42.8843L46.9131 43.7934C45.6867 43.2312 44.4794 42.6406 43.2929 42.0226L43.7548 41.1357ZM50.9882 44.4522C52.2161 44.9427 53.4605 45.4048 54.7199 45.8372L54.3951 46.783C53.1202 46.3452 51.8603 45.8774 50.6172 45.3808L50.9882 44.4522ZM58.5152 47.0371C59.7861 47.4048 61.0699 47.7425 62.3648 48.0491L62.1345 49.0222C60.8235 48.7119 59.5239 48.37 58.2373 47.9977L58.5152 47.0371ZM66.2595 48.8702C67.5608 49.1111 68.8714 49.3205 70.1898 49.4972L70.0569 50.4884C68.722 50.3094 67.3949 50.0974 66.0774 49.8535L66.2595 48.8702ZM74.1461 49.9268C75.4649 50.0364 76.7896 50.113 78.1188 50.1555L78.0868 51.155C76.7405 51.1119 75.3988 51.0344 74.0633 50.9233L74.1461 49.9268ZM82.0975 50.1803C83.4199 50.1543 84.7451 50.094 86.0717 49.9983L86.1437 50.9957C84.7995 51.0927 83.4568 51.1538 82.1172 51.1801L82.0975 50.1803ZM90.0303 49.6071C91.3414 49.4422 92.6524 49.2419 93.9618 49.0051L94.1398 49.9892C92.8125 50.2291 91.4838 50.4322 90.1551 50.5993L90.0303 49.6071ZM97.8547 48.1917C99.1388 47.8867 100.42 47.5455 101.697 47.1672L101.981 48.126C100.686 48.5095 99.3875 48.8554 98.0858 49.1646L97.8547 48.1917ZM105.477 45.9332C106.102 45.7102 106.725 45.4779 107.346 45.2362L107.709 46.1683C107.078 46.4133 106.447 46.6488 105.813 46.875L105.477 45.9332Z" fill="#BDBDBD"/>
</svg>
