<svg width="16" height="38" viewBox="0 0 16 38" fill="none" xmlns="http://www.w3.org/2000/svg">
<path d="M15.5239 35.725C15.553 35.8599 15.4673 35.993 15.3323 36.0221L13.1332 36.4977C12.9982 36.5269 12.8652 36.4411 12.836 36.3062C12.8068 36.1712 12.8925 36.0382 13.0275 36.009L14.9823 35.5863L14.5596 33.6315C14.5304 33.4965 14.6162 33.3634 14.7511 33.3343C14.8861 33.3051 15.0191 33.3908 15.0483 33.5258L15.5239 35.725ZM9.34256 0.810261C8.85176 1.26249 8.39437 1.74617 7.97039 2.2579L7.58537 1.9389C8.02333 1.4103 8.49612 0.9103 9.00375 0.442555L9.34256 0.810261ZM5.83456 5.6236C5.26925 6.80995 4.83056 8.0769 4.51905 9.39915L4.03237 9.28449C4.35153 7.92975 4.80164 6.62892 5.38319 5.40851L5.83456 5.6236ZM3.97262 13.3687C3.91183 14.6858 3.9633 16.0292 4.12723 17.3776L3.63088 17.438C3.46367 16.0625 3.41104 14.6913 3.47315 13.3456L3.97262 13.3687ZM4.92648 21.3126C5.29162 22.5877 5.75894 23.8483 6.32846 25.076L5.87489 25.2864C5.29435 24.035 4.818 22.75 4.4458 21.4503L4.92648 21.3126ZM8.2983 28.575C9.03718 29.6743 9.87012 30.7268 10.7971 31.7161L10.4323 32.058C9.48645 31.0486 8.63683 29.975 7.88332 28.8539L8.2983 28.575ZM13.7707 34.4104C14.2975 34.8144 14.8456 35.2008 15.4149 35.5676L15.1441 35.9879C14.5632 35.6136 14.004 35.2194 13.4664 34.8072L13.7707 34.4104ZM15.7682 35.6721C15.8266 35.942 15.6551 36.2081 15.3852 36.2665L10.9868 37.2176C10.7169 37.2759 10.4508 37.1044 10.3925 36.8345C10.3341 36.5646 10.5056 36.2985 10.7755 36.2402L14.6851 35.3948L13.8397 31.4851C13.7814 31.2152 13.9528 30.9491 14.2228 30.8907C14.4927 30.8324 14.7588 31.0039 14.8171 31.2738L15.7682 35.6721ZM9.51197 0.994114C9.02958 1.43859 8.57989 1.91411 8.16291 2.4174L7.39286 1.7794C7.83781 1.24236 8.31829 0.734203 8.83435 0.258702L9.51197 0.994114ZM6.06025 5.73114C5.50305 6.90047 5.07007 8.15047 4.76238 9.45647L3.78903 9.22716C4.11202 7.85618 4.56784 6.5384 5.1575 5.30097L6.06025 5.73114ZM4.22235 13.3802C4.16222 14.683 4.21311 16.0125 4.3754 17.3475L3.38271 17.4682C3.21386 16.0792 3.16065 14.694 3.22342 13.3341L4.22235 13.3802ZM5.16682 21.2438C5.52843 22.5066 5.99124 23.755 6.55525 24.9708L5.6481 25.3916C5.06205 24.1283 4.58119 22.8312 4.20546 21.5191L5.16682 21.2438ZM8.5058 28.4355C9.23735 29.524 10.0619 30.5659 10.9796 31.5452L10.2498 32.2289C9.29462 31.2095 8.43665 30.1254 7.67582 28.9933L8.5058 28.4355ZM13.9228 34.212C14.4443 34.6119 14.9868 34.9943 15.5504 35.3575L15.0087 36.1981C14.4221 35.8201 13.8572 35.4219 13.3143 35.0055L13.9228 34.212Z" fill="#828282"/>
</svg>
