<svg width="33" height="33" viewBox="0 0 33 33" fill="none" xmlns="http://www.w3.org/2000/svg">
<g clip-path="url(#clip0)">
<path d="M32.1341 25.4581L25.4547 21.0038C24.6071 20.443 23.4709 20.6275 22.8443 21.4277L20.8986 23.9293C20.6486 24.259 20.1941 24.3546 19.8324 24.1537L19.4623 23.9497C18.2354 23.2809 16.7088 22.4484 13.6331 19.3716C10.5574 16.2948 9.72322 14.7671 9.05449 13.5425L8.85156 13.1724C8.64785 12.8107 8.74168 12.3543 9.07151 12.1022L11.5714 10.1572C12.3713 9.53048 12.556 8.3946 11.996 7.54671L7.54162 0.867394C6.96762 0.00397855 5.81601 -0.255214 4.9274 0.278959L2.13435 1.95675C1.25676 2.47268 0.612902 3.30826 0.337793 4.28838C-0.667978 7.95303 0.0886532 14.2776 9.40539 23.5955C16.8167 31.0062 22.334 32.9991 26.1262 32.9991C26.999 33.0028 27.8683 32.8893 28.7109 32.6615C29.6912 32.3867 30.5269 31.7428 31.0425 30.8649L32.722 28.0735C33.2569 27.1847 32.9979 26.0324 32.1341 25.4581ZM31.7744 27.5093L30.0988 30.3023C29.7286 30.9359 29.1275 31.4018 28.4215 31.6023C25.0384 32.5312 19.1279 31.7618 10.1835 22.8174C1.23904 13.8729 0.469773 7.96295 1.3986 4.57934C1.5994 3.87253 2.06585 3.27069 2.70023 2.89988L5.49328 1.22428C5.87884 0.992285 6.37867 1.10474 6.62774 1.47941L9.04741 5.11216L11.0783 8.15815C11.3215 8.52593 11.2416 9.01886 10.8946 9.29101L8.39414 11.236C7.63319 11.8179 7.41589 12.8707 7.88439 13.7063L8.08294 14.067C8.78576 15.3561 9.65955 16.9596 12.8496 20.1492C16.0397 23.3387 17.6428 24.2125 18.9312 24.9153L19.2924 25.1144C20.128 25.5828 21.1808 25.3656 21.7627 24.6046L23.7077 22.1041C23.9799 21.7574 24.4727 21.6775 24.8406 21.9205L31.5193 26.3748C31.8943 26.6237 32.0067 27.1238 31.7744 27.5093Z" fill="#FFB800"/>
<path d="M18.6993 5.50284C23.86 5.50857 28.0421 9.69077 28.0479 14.8515C28.0479 15.1552 28.2941 15.4014 28.5978 15.4014C28.9016 15.4014 29.1477 15.1552 29.1477 14.8515C29.1414 9.08358 24.4672 4.40936 18.6993 4.40305C18.3956 4.40305 18.1494 4.64922 18.1494 4.95294C18.1494 5.25667 18.3956 5.50284 18.6993 5.50284Z" fill="#FFB800"/>
<path d="M18.6993 8.80234C22.0385 8.80627 24.7445 11.5123 24.7484 14.8515C24.7484 15.1552 24.9947 15.4014 25.2983 15.4014C25.6021 15.4014 25.8482 15.1552 25.8482 14.8515C25.8437 10.9051 22.6456 7.70706 18.6993 7.70255C18.3956 7.70255 18.1494 7.94872 18.1494 8.25244C18.1494 8.55616 18.3956 8.80234 18.6993 8.80234Z" fill="#FFB800"/>
<path d="M18.6993 12.1019C20.2171 12.1037 21.4471 13.3336 21.4489 14.8515C21.4489 15.1552 21.6952 15.4014 21.9988 15.4014C22.3025 15.4014 22.5487 15.1552 22.5487 14.8515C22.5463 12.7265 20.8243 11.0045 18.6993 11.0021C18.3956 11.0021 18.1494 11.2482 18.1494 11.552C18.1494 11.8557 18.3956 12.1019 18.6993 12.1019Z" fill="#FFB800"/>
</g>
<defs>
<clipPath id="clip0">
<rect width="33" height="33" fill="white"/>
</clipPath>
</defs>
</svg>
