<svg width="16" height="16" viewBox="0 0 16 16" fill="none" xmlns="http://www.w3.org/2000/svg">
<path d="M8 0C3.5888 0 0 3.5888 0 8C0 12.4112 3.5888 16 8 16C12.4112 16 16 12.4112 16 8C16 3.5888 12.4112 0 8 0ZM8 14.2977C4.52746 14.2977 1.7021 11.4727 1.7021 8C1.7021 4.5273 4.52746 1.70226 8 1.70226C11.4725 1.70226 14.2979 4.5273 14.2979 8C14.2979 11.4727 11.4725 14.2977 8 14.2977Z" fill="#FFB800"/>
<path d="M12.1695 7.75299H8.57425V3.43022C8.57425 3.06645 8.27931 2.77151 7.91554 2.77151C7.55177 2.77151 7.25684 3.06645 7.25684 3.43022V8.4117C7.25684 8.77547 7.55177 9.0704 7.91554 9.0704H12.1695C12.5332 9.0704 12.8282 8.77547 12.8282 8.4117C12.8282 8.04793 12.5332 7.75299 12.1695 7.75299Z" fill="#FFB800"/>
</svg>
