<svg width="19" height="19" viewBox="0 0 19 19" fill="none" xmlns="http://www.w3.org/2000/svg">
<g clip-path="url(#clip0)">
<path d="M17.737 9.74609C17.6605 9.58968 17.6605 9.41029 17.737 9.25392L18.4456 7.80425C18.8402 6.99708 18.5275 6.03503 17.7339 5.61395L16.3086 4.85767C16.1548 4.7761 16.0494 4.63093 16.0193 4.45952L15.7405 2.87017C15.5853 1.98527 14.7667 1.39063 13.8773 1.51647L12.2797 1.74246C12.1072 1.76681 11.9367 1.71136 11.8116 1.59035L10.6519 0.468467C10.0062 -0.156229 8.99457 -0.156266 8.34887 0.468467L7.18914 1.59046C7.06401 1.71151 6.89349 1.76684 6.72108 1.74257L5.12342 1.51658C4.23373 1.39067 3.41547 1.98538 3.26024 2.87028L2.98148 4.45956C2.95138 4.631 2.84596 4.77614 2.69221 4.85774L1.26685 5.61403C0.473234 6.03507 0.160627 6.9972 0.555171 7.80436L1.26377 9.25399C1.34022 9.41041 1.34022 9.58979 1.26377 9.74617L0.555134 11.1958C0.160589 12.003 0.473197 12.965 1.26681 13.3861L2.69218 14.1424C2.84596 14.2239 2.95138 14.3691 2.98148 14.5405L3.26024 16.1299C3.40156 16.9354 4.0923 17.5004 4.88618 17.5003C4.96437 17.5003 5.04371 17.4948 5.12346 17.4835L6.72112 17.2575C6.89342 17.2331 7.06404 17.2886 7.18918 17.4097L8.34887 18.5315C8.6718 18.8439 9.08601 19.0001 9.50037 19C9.91462 19 10.3291 18.8439 10.6519 18.5315L11.8116 17.4097C11.9367 17.2886 12.1073 17.2334 12.2797 17.2575L13.8773 17.4835C14.7671 17.6094 15.5853 17.0147 15.7405 16.1298L16.0193 14.5406C16.0494 14.3691 16.1548 14.224 16.3086 14.1424L17.7339 13.3861C18.5275 12.9651 18.8402 12.0029 18.4456 11.1958L17.737 9.74609ZM17.2203 12.418L15.7949 13.1743C15.3405 13.4155 15.0288 13.8444 14.9399 14.3512L14.6612 15.9405C14.6087 16.2399 14.3319 16.441 14.0308 16.3985L12.4331 16.1725C11.9236 16.1003 11.4195 16.2643 11.0497 16.622L9.88994 17.7438C9.67152 17.9551 9.32926 17.9551 9.11076 17.7438L7.95106 16.6219C7.63853 16.3196 7.22996 16.1558 6.80343 16.1558C6.72527 16.1558 6.64649 16.1613 6.5676 16.1724L4.96994 16.3984C4.66913 16.441 4.39211 16.2398 4.33956 15.9404L4.06076 14.3511C3.97185 13.8443 3.66021 13.4154 3.20573 13.1743L1.78037 12.418C1.51185 12.2755 1.40608 11.95 1.53957 11.677L2.2482 10.2273C2.47412 9.76506 2.47412 9.23492 2.2482 8.77268L1.53957 7.32301C1.40608 7.04993 1.51185 6.72444 1.78037 6.58198L3.20573 5.8257C3.66017 5.58452 3.97185 5.15562 4.06073 4.64885L4.33949 3.05954C4.39204 2.76014 4.6688 2.55901 4.96986 2.60154L6.56752 2.82753C7.07685 2.89964 7.5812 2.73573 7.95099 2.37803L9.11073 1.25615C9.32915 1.04485 9.67141 1.04485 9.88991 1.25615L11.0496 2.37803C11.4194 2.73576 11.9237 2.89964 12.4331 2.82753L14.0307 2.60154C14.3316 2.55898 14.6086 2.76014 14.6611 3.05954L14.9399 4.64889C15.0288 5.15565 15.3404 5.5846 15.7949 5.8257L17.2203 6.58198C17.4888 6.72444 17.5945 7.04993 17.4611 7.32301L16.7524 8.77265C16.5265 9.23484 16.5265 9.76506 16.7524 10.2273L17.4611 11.6769C17.5946 11.95 17.4888 12.2756 17.2203 12.418Z" fill="#F83838"/>
<path d="M13.5035 5.49646C13.2895 5.28249 12.9426 5.28249 12.7286 5.49646L5.49642 12.7287C5.28244 12.9426 5.28244 13.2896 5.49642 13.5035C5.6034 13.6105 5.74364 13.664 5.88384 13.664C6.02403 13.664 6.16431 13.6106 6.27126 13.5035L13.5034 6.27138C13.7175 6.05737 13.7175 5.71047 13.5035 5.49646Z" fill="#F83838"/>
<path d="M7.30788 4.56873C6.2001 4.56873 5.29883 5.47 5.29883 6.57779C5.29883 7.68557 6.2001 8.58684 7.30788 8.58684C8.41566 8.58684 9.31693 7.68557 9.31693 6.57779C9.31693 5.47 8.41566 4.56873 7.30788 4.56873ZM7.30788 7.49097C6.80435 7.49097 6.3947 7.08132 6.3947 6.57775C6.3947 6.07421 6.80435 5.66457 7.30788 5.66457C7.81141 5.66457 8.2211 6.07421 8.2211 6.57775C8.22106 7.08132 7.81141 7.49097 7.30788 7.49097Z" fill="#F83838"/>
<path d="M11.6917 10.4132C10.5839 10.4132 9.68262 11.3145 9.68262 12.4223C9.68262 13.53 10.5839 14.4313 11.6917 14.4313C12.7995 14.4313 13.7007 13.53 13.7007 12.4223C13.7007 11.3145 12.7995 10.4132 11.6917 10.4132ZM11.6917 13.3354C11.1881 13.3354 10.7785 12.9258 10.7785 12.4223C10.7785 11.9187 11.1881 11.5091 11.6917 11.5091C12.1952 11.5091 12.6049 11.9187 12.6049 12.4223C12.6049 12.9258 12.1952 13.3354 11.6917 13.3354Z" fill="#F83838"/>
</g>
<defs>
<clipPath id="clip0">
<rect width="19" height="19" fill="white"/>
</clipPath>
</defs>
</svg>
