<svg width="30" height="30" viewBox="0 0 30 30" fill="none" xmlns="http://www.w3.org/2000/svg">
<g clip-path="url(#clip0)">
<path d="M28.7535 13.069C28.6009 12.9794 28.4122 12.9771 28.2575 13.063L26.8815 13.8275L26.5 0.486C26.4924 0.215313 26.2707 -0.000124946 26 5.43675e-08H22.5C22.2292 -0.000124946 22.0076 0.215313 22 0.486L21.534 16.8L20 17.65V13.5C19.9999 13.2239 19.7759 13.0001 19.4998 13.0002C19.415 13.0003 19.3316 13.0219 19.2575 13.063L11 17.65V13.5C10.9999 13.2239 10.7759 13.0001 10.4998 13.0002C10.415 13.0003 10.3316 13.0219 10.2575 13.063L1.2575 18.063C1.09869 18.1511 1.00006 18.3184 1 18.5V29.5C1 29.7761 1.22387 30 1.5 30H28.5C28.7761 30 29 29.7761 29 29.5V13.5C29 13.3228 28.9062 13.1588 28.7535 13.069ZM22.986 1H25.514L25.543 2H22.9575L22.986 1ZM22.9285 3H25.5715L25.8965 14.3745L22.55 16.233L22.9285 3ZM14.5 29H11.5V26.5H14.5V29ZM18.5 29H15.5V26.5H18.5V29ZM28 29H19.5V26C19.5 25.7239 19.2761 25.5 19 25.5H11C10.7239 25.5 10.5 25.7239 10.5 26V29H2V18.7945L10 14.35V18.5C10.0001 18.7761 10.2241 18.9999 10.5002 18.9998C10.585 18.9997 10.6684 18.9781 10.7425 18.937L19 14.35V18.5C19.0001 18.7761 19.2241 18.9999 19.5002 18.9998C19.585 18.9997 19.6684 18.9781 19.7425 18.937L24.458 16.3175L26.65 15.1L28 14.35V29Z" fill="#4F4F4F"/>
<path d="M8 20.0001H4C3.72387 20.0001 3.5 20.2239 3.5 20.5001V22.5001C3.5 22.7762 3.72387 23.0001 4 23.0001H8C8.27612 23.0001 8.5 22.7762 8.5 22.5001V20.5001C8.5 20.2239 8.27612 20.0001 8 20.0001ZM7.5 22.0001H4.5V21.0001H7.5V22.0001Z" fill="#F2994A"/>
<path d="M16.998 20.0001H12.998C12.7219 20.0001 12.498 20.2239 12.498 20.5001V22.5001C12.498 22.7762 12.7219 23.0001 12.998 23.0001H16.998C17.2742 23.0001 17.498 22.7762 17.498 22.5001V20.5001C17.498 20.2239 17.2742 20.0001 16.998 20.0001ZM16.498 22.0001H13.498V21.0001H16.498V22.0001Z" fill="#F2994A"/>
<path d="M26 20.0001H22C21.7239 20.0001 21.5 20.2239 21.5 20.5001V22.5001C21.5 22.7762 21.7239 23.0001 22 23.0001H26C26.2761 23.0001 26.5 22.7762 26.5 22.5001V20.5001C26.5 20.2239 26.2761 20.0001 26 20.0001ZM25.5 22.0001H22.5V21.0001H25.5V22.0001Z" fill="#F2994A"/>
</g>
<defs>
<clipPath id="clip0">
<rect width="30" height="30" fill="white"/>
</clipPath>
</defs>
</svg>
