<svg width="22" height="22" viewBox="0 0 22 22" fill="none" xmlns="http://www.w3.org/2000/svg">
<g clip-path="url(#clip0)">
<path d="M19.5867 21.9854H2.41498C1.96515 21.9854 1.60059 21.6208 1.60059 21.171V8.04019H20.4013V21.171C20.4013 21.6208 20.0365 21.9854 19.5867 21.9854Z" fill="#FFC73B"/>
<path d="M1.60059 8.04019H20.4013V10.7726H1.60059V8.04019Z" fill="#EFB025"/>
<path d="M22 5.19167V8.5768C22 8.93834 21.7066 9.23123 21.3451 9.23123H0.654434C0.292892 9.23123 0 8.93834 0 8.5768V5.19167C0 4.83012 0.292892 4.53723 0.654434 4.53723H21.3451C21.7066 4.53723 22 4.83012 22 5.19167Z" fill="#FFC73B"/>
<path d="M10.251 6.09351C10.1082 6.25984 9.96803 6.42853 9.83124 6.59906C9.32149 7.23335 8.85487 7.89803 8.43307 8.58788C8.30333 8.80003 8.17812 9.01437 8.05659 9.23123H3.59473C3.85539 8.63974 4.14124 8.05916 4.45091 7.49167C5.01253 6.4621 5.65337 5.47415 6.3694 4.53723C6.54044 4.31349 6.7155 4.09244 6.89493 3.87474C7.00235 3.74348 7.11162 3.61407 7.2224 3.48517C7.62959 3.83597 8.03645 4.18643 8.44382 4.53723C8.50693 4.59128 8.57004 4.646 8.63298 4.70021C9.11369 5.11412 9.59441 5.52786 10.075 5.94228C10.1339 5.99229 10.1923 6.04315 10.251 6.09351Z" fill="#EFB025"/>
<path d="M16.9102 9.23123H12.448C12.327 9.01437 12.2013 8.80003 12.0715 8.58788C11.6497 7.89803 11.1826 7.23335 10.6734 6.59906C10.5361 6.42853 10.3959 6.25984 10.2529 6.09351C10.3118 6.04315 10.3703 5.99263 10.4292 5.94228C10.9102 5.52786 11.3909 5.11362 11.8715 4.70021C11.9346 4.646 11.9977 4.59128 12.0608 4.53723C12.468 4.18643 12.8754 3.83597 13.2822 3.48517C13.393 3.61374 13.5023 3.74348 13.6097 3.8744C13.7895 4.09244 13.9647 4.31349 14.1352 4.53723C14.8513 5.47415 15.4921 6.4621 16.054 7.49167C16.3637 8.05916 16.6496 8.63974 16.9102 9.23123Z" fill="#EFB025"/>
<path d="M11.0003 6.09384C10.8573 6.26001 10.7171 6.4287 10.5803 6.59923C10.0707 7.23352 9.60396 7.89819 9.18216 8.58821C7.84308 10.7771 6.95366 13.2223 6.57852 15.7816C6.01472 15.0339 5.4944 14.2248 5.02628 13.3598C4.20282 13.8969 3.39799 14.5112 2.62305 15.2024C3.02101 12.4876 3.89784 9.87828 5.20016 7.49184C5.89572 6.21654 6.71313 5.00485 7.64401 3.87491C7.75143 3.74365 7.8607 3.61441 7.97148 3.48534C8.44179 3.89035 8.91176 4.29536 9.38223 4.70038C9.86278 5.11429 10.3435 5.52803 10.8242 5.94244C10.8829 5.99246 10.9414 6.04332 11.0003 6.09384Z" fill="#FF4440"/>
<path d="M19.3795 15.2024C18.6046 14.5112 17.7997 13.8969 16.9763 13.3598C16.5082 14.2248 15.9878 15.0339 15.424 15.7816C15.0489 13.2223 14.1597 10.7771 12.8204 8.58821C12.3986 7.89819 11.9315 7.23352 11.4222 6.59923C11.2849 6.4287 11.1448 6.26001 11.002 6.09384C11.0607 6.04332 11.1191 5.9928 11.178 5.94244C11.6591 5.52803 12.1398 5.11378 12.6205 4.70038C13.0908 4.29486 13.5613 3.89035 14.0311 3.48534C14.1419 3.61391 14.2511 3.74365 14.3586 3.87457C15.2896 5.00452 16.107 6.2162 16.8029 7.49184C18.1049 9.87828 18.9816 12.4876 19.3795 15.2024Z" fill="#FF4440"/>
<path d="M9.24902 6.09384H12.7522V9.23123H9.24902V6.09384Z" fill="#FF4440"/>
<path d="M16.8009 7.49184L12.8185 8.58821C12.3967 7.89819 11.9295 7.23352 11.4203 6.59923L11.1761 5.94244L11 5.46878L12.6185 4.70038L14.3566 3.87457C15.2876 5.00452 16.1051 6.2162 16.8009 7.49184Z" fill="#EA2F2F"/>
<path d="M10.9993 5.46878L10.8233 5.94244L10.5794 6.59923C10.0698 7.23352 9.60301 7.89819 9.18121 8.58821L5.19922 7.49184C5.89478 6.21654 6.71219 5.00485 7.64307 3.87491L9.38129 4.70038L10.9993 5.46878Z" fill="#EA2F2F"/>
<path d="M17.3559 0.152233L11 3.17062L12.2209 6.4542L19.005 4.58691C19.8922 4.34269 20.3796 3.3905 20.0589 2.52794L19.4989 1.02235C19.1783 0.159786 18.1872 -0.242542 17.3559 0.152233Z" fill="#FF4440"/>
<path d="M4.64259 0.152233L10.9984 3.17062L9.77752 6.4542L2.99367 4.58691C2.10643 4.34269 1.619 3.3905 1.93976 2.52794L2.49952 1.02235C2.82028 0.159786 3.81125 -0.242542 4.64259 0.152233Z" fill="#FF4440"/>
<path d="M12.5167 4.49024C12.4012 4.49024 12.2879 4.43317 12.2213 4.3286C12.1171 4.16562 12.1646 3.9491 12.3275 3.84487C12.3757 3.81415 13.5204 3.0857 14.8347 2.55413C16.7293 1.78774 17.9945 1.82886 18.5948 2.67632C18.7067 2.83427 18.6693 3.05297 18.5113 3.16476C18.3534 3.27654 18.1349 3.23928 18.0231 3.08134C17.2094 1.93259 13.8261 3.71882 12.705 4.43519C12.6466 4.47245 12.5813 4.49024 12.5167 4.49024Z" fill="#EA2F2F"/>
<path d="M9.45023 4.49024C9.38561 4.49024 9.32031 4.47245 9.2619 4.43519C8.14085 3.71882 4.75757 1.93259 3.94385 3.08134C3.83189 3.23928 3.61336 3.27654 3.45541 3.16476C3.29764 3.0528 3.26021 2.83427 3.37216 2.67632C3.97238 1.82886 5.23744 1.78774 7.13226 2.55413C8.4465 3.08553 9.59122 3.81415 9.63939 3.84487C9.80237 3.9491 9.84987 4.16562 9.7458 4.3286C9.67883 4.43317 9.5657 4.49024 9.45023 4.49024Z" fill="#EA2F2F"/>
<path d="M11.9977 2.04202H10.0044C9.45888 2.04202 9.0166 2.4843 9.0166 3.02997V5.92583C9.0166 6.4715 9.45888 6.91377 10.0044 6.91377H11.9977C12.5432 6.91377 12.9855 6.4715 12.9855 5.92583V3.02997C12.9855 2.4843 12.5432 2.04202 11.9977 2.04202Z" fill="#EA2F2F"/>
<path d="M9.24902 9.23123H12.7522V21.9854H9.24902V9.23123Z" fill="#FF4440"/>
<path d="M9.24902 9.23123H12.7522V10.7726H9.24902V9.23123Z" fill="#EA2F2F"/>
</g>
<defs>
<clipPath id="clip0">
<rect width="22" height="22" fill="white"/>
</clipPath>
</defs>
</svg>
