<svg width="44" height="44" viewBox="0 0 44 44" fill="none" xmlns="http://www.w3.org/2000/svg">
<g clip-path="url(#clip0)">
<path d="M5.53633 23.4667C5.7958 27.2279 8.09589 30.5443 11.5277 32.1053L9.577 40.9053C9.26919 42.2905 10.1425 43.6629 11.5277 43.9707C12.9128 44.2785 14.2852 43.4051 14.593 42.02L14.9597 40.3333H23.9063L24.273 41.9907C24.5808 43.3758 25.9532 44.2491 27.3383 43.9413C28.7235 43.6335 29.5968 42.2611 29.289 40.876L27.3383 32.076C30.7756 30.5302 33.0895 27.2253 33.3663 23.4667C34.6334 23.3 35.5773 22.2146 35.5663 20.9367C35.5762 20.2496 35.3101 19.5873 34.8277 19.098C34.3453 18.6087 33.6868 18.3333 32.9997 18.3333H18.333L31.797 12.5547C33.0565 12.0343 33.6874 10.6182 33.2318 9.33382C32.7763 8.04943 31.3943 7.34723 30.0883 7.73666C27.772 3.18235 22.4451 1.04221 17.6217 2.72799L17.0277 1.34199C16.7971 0.804454 16.362 0.380859 15.8184 0.164818C15.2749 -0.0512227 14.6677 -0.0419238 14.131 0.19066L10.0903 1.92866C8.97483 2.40889 8.45948 3.70219 8.939 4.81799L9.533 6.19666C4.97971 8.53245 2.85513 13.8752 4.561 18.7C3.58952 19.2419 3.08093 20.3505 3.30392 21.4403C3.52691 22.5301 4.4301 23.3499 5.53633 23.4667ZM13.1557 41.668C13.0261 42.2593 12.4416 42.6336 11.8503 42.504C11.259 42.3744 10.8847 41.79 11.0143 41.1987L12.921 32.5893C13.6256 32.7956 14.3514 32.9211 15.0843 32.9633L13.1557 41.668ZM22.2857 33L22.931 35.9333H15.935L16.5803 33H22.2857ZM15.2823 38.8667L15.605 37.4H23.261L23.5837 38.8667H15.2823ZM27.8517 41.1987C27.9813 41.79 27.607 42.3744 27.0157 42.504C26.4244 42.6336 25.8399 42.2593 25.7103 41.668L23.7817 33C24.527 32.9606 25.2652 32.8351 25.9817 32.626L27.8517 41.1987ZM23.0997 31.5333H15.7663C11.1788 31.5493 7.3486 28.0383 6.96633 23.4667H31.8997C31.5174 28.0383 27.6872 31.5493 23.0997 31.5333ZM32.9997 19.8C33.4443 19.8004 33.8449 20.0684 34.015 20.4792C34.1851 20.89 34.0912 21.3628 33.777 21.6773C33.5718 21.8851 33.2916 22.0014 32.9997 22L9.81167 22L14.945 19.8H32.9997ZM30.7997 9.09333C31.3227 9.09259 31.7739 9.4602 31.8789 9.97257C31.9838 10.4849 31.7135 11.0004 31.2323 11.2053L6.299 21.912C5.74009 22.151 5.09329 21.8916 4.85433 21.3327C4.61538 20.7738 4.87475 20.127 5.43367 19.888C32.105 8.43333 30.433 9.09333 30.7997 9.09333ZM10.2737 3.66666C10.3481 3.48747 10.4905 3.34508 10.6697 3.27066L14.7103 1.53999C14.8892 1.46155 15.092 1.45769 15.2737 1.52927C15.4554 1.60086 15.601 1.74197 15.6783 1.92133L16.2577 3.27066L10.8603 5.58799C10.2297 4.09933 10.1343 4.03333 10.2737 3.66666ZM10.765 7.216L17.5043 4.32666C21.7094 2.52052 26.5969 4.23897 28.7463 8.27933L5.89567 18.0987C4.4443 13.7589 6.56117 9.03102 10.765 7.22333V7.216Z" fill="#FFB800"/>
<path d="M7.97858 16.3386C8.19522 16.3414 8.402 16.2483 8.54347 16.0842C8.68493 15.9201 8.74659 15.7018 8.71191 15.488C8.29391 12.914 10.7872 10.3546 10.8166 10.3546C11.1009 10.0686 11.1009 9.60668 10.8166 9.32065C10.6789 9.18182 10.4914 9.10373 10.2959 9.10373C10.1004 9.10373 9.91294 9.18182 9.77524 9.32065C9.65058 9.44531 6.72458 12.4153 7.26724 15.7373C7.33027 16.0819 7.62827 16.3339 7.97858 16.3386Z" fill="#FFB800"/>
<path d="M9.21802 25.938C9.28402 26.1067 10.9194 30.0667 15.0334 30.0667C15.4384 30.0667 15.7667 29.7384 15.7667 29.3334C15.7667 28.9283 15.4384 28.6 15.0334 28.6C11.924 28.6 10.6334 25.5347 10.582 25.3954C10.4851 25.1517 10.2655 24.9783 10.006 24.9404C9.74655 24.9025 9.48658 25.0059 9.32404 25.2117C9.16149 25.4175 9.12108 25.6944 9.21802 25.938Z" fill="#FFB800"/>
<path d="M30.8366 15.4807C30.5358 15.6347 30.3792 15.9744 30.4575 16.3032C30.5358 16.632 30.8286 16.8647 31.1666 16.8667C31.2816 16.868 31.3951 16.8403 31.4966 16.786C33.6966 15.6787 37.5612 12.386 36.2706 7.86866C35.0532 3.59333 37.1359 2.93333 37.2092 2.93333C37.4712 2.87045 37.6798 2.67257 37.7563 2.41424C37.8329 2.1559 37.7658 1.87636 37.5803 1.6809C37.3949 1.48545 37.1192 1.40378 36.8572 1.46666C36.0647 1.71732 35.4032 2.27078 35.0166 3.00666C34.2832 4.27533 34.2246 6.04999 34.8626 8.26466C36.1386 12.7453 31.0566 15.4 30.8366 15.4807Z" fill="#FFB800"/>
<path d="M35.2142 16.2213C34.9181 16.3812 34.7687 16.722 34.852 17.0481C34.9352 17.3741 35.2297 17.6017 35.5662 17.6C35.6891 17.6006 35.8101 17.5703 35.9182 17.512C37.8689 16.456 41.2569 13.3247 40.1275 9.03466C39.0642 5.01599 40.8609 4.39266 40.8609 4.37799C41.2598 4.28079 41.5044 3.87859 41.4072 3.47966C41.31 3.08072 40.9078 2.83612 40.5089 2.93332C40.3769 2.93332 37.2529 3.88666 38.7049 9.38666C39.8269 13.6473 35.4049 16.1333 35.2142 16.2213Z" fill="#FFB800"/>
</g>
<defs>
<clipPath id="clip0">
<rect width="44" height="44" fill="white"/>
</clipPath>
</defs>
</svg>
