<svg width="44" height="44" viewBox="0 0 44 44" fill="none" xmlns="http://www.w3.org/2000/svg">
<path d="M40.2589 10.8013C38.2525 9.20227 35.4206 7.8931 31.8418 6.91032C24.959 5.02021 17.1974 4.81619 14.1798 4.81619C6.36101 4.81619 0 11.1773 0 18.9961V25.0039C0 32.8228 6.36101 39.1838 14.1798 39.1838C17.7851 39.1838 20.4927 38.0544 23.3594 36.8587C26.3239 35.6221 29.3892 34.3435 33.7003 34.3435C39.3796 34.3435 44 29.723 44 24.0438V18.036C44 15.2139 42.7413 12.7798 40.2589 10.8013ZM39.5352 25.4927C39.8606 25.8384 40.4045 25.8546 40.75 25.5294C41.3328 24.9806 41.8455 24.3691 42.2812 23.7108V24.0438C42.2812 28.7755 38.4319 32.6248 33.7003 32.6248C29.0451 32.6248 25.8183 33.9707 22.6977 35.2724C19.9944 36.3999 17.441 37.4651 14.1798 37.4651C7.57806 37.4651 2.15978 32.3042 1.74522 25.8052C4.15834 30.1943 8.82724 33.1757 14.1798 33.1757C17.7851 33.1757 20.4927 32.0464 23.3594 30.8506C26.3239 29.6141 29.3892 28.3355 33.7003 28.3355C34.0206 28.3355 34.3442 28.3204 34.6621 28.2906C35.1347 28.2464 35.4819 27.8274 35.4376 27.3548C35.3934 26.8824 34.9739 26.5353 34.5018 26.5794C34.2369 26.6042 33.9673 26.6168 33.7003 26.6168C29.0451 26.6168 25.8183 27.9628 22.6977 29.2644C19.9944 30.392 17.441 31.4571 14.1798 31.4571C7.30873 31.4571 1.71875 25.8671 1.71875 18.9961C1.71875 12.1251 7.30873 6.53503 14.1798 6.53503C17.1277 6.53503 24.7055 6.73311 31.3867 8.56779C38.6158 10.553 42.2812 13.7386 42.2812 18.036C42.2812 20.3816 41.2937 22.6567 39.5718 24.2779C39.2263 24.6032 39.2098 25.1471 39.5352 25.4927Z" fill="#FFB800"/>
<path d="M38.8286 26.0412C38.6264 25.6118 38.1143 25.4274 37.6851 25.6296C37.6789 25.6324 37.6707 25.6364 37.6646 25.6394C37.2402 25.8517 37.0681 26.3679 37.2803 26.7924C37.4309 27.0935 37.7344 27.2676 38.0497 27.2676C38.1771 27.2676 38.3063 27.2392 38.4282 27.1793C38.8495 26.9736 39.0289 26.4669 38.8286 26.0412Z" fill="#FFB800"/>
<path d="M20.3832 8.49596L20.3389 8.49235C19.8651 8.45539 19.4516 8.80757 19.4139 9.28074C19.3762 9.75382 19.7291 10.168 20.2022 10.2058L20.2461 10.2092C20.2694 10.2111 20.2925 10.212 20.3156 10.212C20.7591 10.212 21.1352 9.87087 21.1713 9.42116C21.2091 8.94799 20.8563 8.53385 20.3832 8.49596Z" fill="#FFB800"/>
<path d="M40.0261 15.7208C39.1737 14.0361 37.277 12.5801 34.3887 11.3935C32.0516 10.4333 29.4957 9.82677 27.7631 9.48689C26.7248 9.2833 25.6366 9.10146 24.5289 8.9466C24.0591 8.88026 23.6246 9.20854 23.5587 9.6787C23.493 10.1488 23.8208 10.583 24.2908 10.6488C25.3676 10.7993 26.4246 10.9759 27.4324 11.1736C33.3354 12.3312 37.3667 14.2715 38.4924 16.4966C38.7289 16.9641 38.8439 17.4676 38.8439 18.0359C38.8439 20.8719 36.5366 23.1792 33.7005 23.1792C30.8329 23.1792 28.0483 23.6478 25.1874 24.612C23.9553 25.0273 22.7588 25.5238 21.6019 26.004C20.8366 26.3215 20.0453 26.65 19.2598 26.9476C17.2776 27.6988 15.7584 28.0194 14.1799 28.0194C9.20434 28.0194 5.15634 23.9715 5.15634 18.996C5.15634 14.0204 9.20434 9.97235 14.1799 9.97235C15.1506 9.97235 16.1361 9.99074 17.1087 10.027C17.2738 10.0331 17.439 10.0397 17.6044 10.047C18.0782 10.0685 18.4799 9.70053 18.5008 9.22633C18.5218 8.75221 18.1543 8.3508 17.6802 8.32991C17.5109 8.32244 17.3416 8.31565 17.1726 8.30937C16.1788 8.27234 15.1718 8.2536 14.1799 8.2536C8.25653 8.2536 3.4375 13.0725 3.4375 18.996C3.4375 24.9192 8.25644 29.7381 14.1799 29.7381C15.979 29.7381 17.6804 29.3843 19.8688 28.5548C20.6793 28.2476 21.4832 27.914 22.2606 27.5913C23.391 27.1223 24.5598 26.6372 25.7363 26.2407C28.4174 25.3371 31.0225 24.8979 33.7005 24.8979C37.4843 24.8981 40.5627 21.8197 40.5627 18.036C40.5627 17.1919 40.3871 16.4346 40.0261 15.7208Z" fill="#FFB800"/>
<path d="M15.0026 11.672C12.6002 11.672 10.6455 13.4445 10.6455 15.6232C10.6455 17.8019 12.6002 19.5743 15.0026 19.5743C17.4052 19.5743 19.3597 17.8019 19.3597 15.6232C19.3597 13.4445 17.4052 11.672 15.0026 11.672ZM15.0026 17.8555C13.5478 17.8555 12.3643 16.8541 12.3643 15.6231C12.3643 14.3922 13.5478 13.3907 15.0026 13.3907C16.4575 13.3907 17.641 14.3921 17.641 15.6231C17.641 16.8541 16.4575 17.8555 15.0026 17.8555Z" fill="#FFB800"/>
</svg>
