<svg width="44" height="44" viewBox="0 0 44 44" fill="none" xmlns="http://www.w3.org/2000/svg">
<path d="M16.3288 8.86835C15.6255 9.34436 14.6621 9.99628 14.6621 11.3243C14.6621 11.799 15.0468 12.1837 15.5215 12.1837C15.9962 12.1837 16.3809 11.799 16.3809 11.3243C16.3809 10.946 16.6444 10.7301 17.2919 10.292C17.9955 9.81601 18.959 9.16409 18.959 7.83575C18.959 6.50742 17.9955 5.85583 17.2919 5.37982C16.6444 4.94174 16.3809 4.72589 16.3809 4.34756C16.3809 3.96924 16.6444 3.75339 17.2919 3.31531C17.9955 2.83929 18.959 2.18771 18.959 0.859375C18.959 0.38504 18.5739 0 18.0996 0C17.6249 0 17.2402 0.38504 17.2402 0.859375C17.2402 1.2377 16.9764 1.45355 16.3288 1.89163C15.6255 2.36765 14.6621 3.01923 14.6621 4.34756C14.6621 5.6759 15.6252 6.32748 16.3288 6.8035C16.9764 7.24158 17.2402 7.45743 17.2402 7.83609C17.2402 8.21442 16.9764 8.43027 16.3288 8.86835Z" fill="#FFB800"/>
<path d="M22.2569 8.86835C21.5536 9.34436 20.5902 9.99594 20.5902 11.3243C20.5902 11.799 20.9749 12.1837 21.4496 12.1837C21.9242 12.1837 22.3089 11.799 22.3089 11.3243C22.3089 10.946 22.5724 10.7301 23.22 10.292C23.9236 9.81601 24.8871 9.16409 24.8871 7.83575C24.8871 6.50742 23.9236 5.85583 23.22 5.37982C22.5724 4.94174 22.3086 4.72589 22.3086 4.34756C22.3086 3.96924 22.5724 3.75339 23.22 3.31531C23.9236 2.83929 24.8871 2.18738 24.8871 0.859375C24.8871 0.384705 24.502 0 24.0277 0C23.553 0 23.1683 0.384705 23.1683 0.859375C23.1683 1.23737 22.9044 1.45355 22.2569 1.89163C21.5533 2.36765 20.5898 3.01923 20.5898 4.34756C20.5898 5.67557 21.5533 6.32748 22.2569 6.80316C22.9044 7.24158 23.1683 7.45743 23.1683 7.83575C23.1683 8.21442 22.9048 8.43027 22.2569 8.86835Z" fill="#FFB800"/>
<path d="M28.1853 8.86835C27.482 9.34436 26.5186 9.99628 26.5186 11.3243C26.5186 11.799 26.9033 12.1837 27.3779 12.1837C27.8526 12.1837 28.2373 11.799 28.2373 11.3243C28.2373 10.946 28.5012 10.7301 29.1487 10.292C29.852 9.81601 30.8154 9.16409 30.8154 7.83575C30.8154 6.50742 29.852 5.85583 29.1487 5.37982C28.5012 4.94174 28.2373 4.72589 28.2373 4.34756C28.2373 3.96924 28.5012 3.75339 29.1487 3.31531C29.852 2.83929 30.8154 2.18771 30.8154 0.859375C30.8154 0.38504 30.4304 0 29.9561 0C29.4814 0 29.0967 0.38504 29.0967 0.859375C29.0967 1.2377 28.8328 1.45355 28.1853 1.89163C27.482 2.36765 26.5186 3.01923 26.5186 4.34756C26.5186 5.6759 27.482 6.32748 28.1853 6.8035C28.8328 7.24158 29.0967 7.45743 29.0967 7.83609C29.0967 8.21442 28.8328 8.43027 28.1853 8.86835Z" fill="#FFB800"/>
<path d="M41.0278 19.7179H37.884C37.983 19.1066 38.0475 18.4843 38.075 17.8521C39.065 17.5064 39.7773 16.5638 39.7773 15.4573C39.7773 14.0588 38.6393 12.9208 37.2405 12.9208H6.70917C5.31033 12.9208 4.17267 14.0588 4.17267 15.4573C4.17267 16.5638 4.88467 17.5064 5.87463 17.8521C5.9025 18.4843 5.96695 19.1066 6.06564 19.7176H2.92188C2.4472 19.7176 2.0625 20.1026 2.0625 20.577C2.0625 21.0516 2.4472 21.4363 2.92188 21.4363H6.44162C7.62561 25.706 10.5263 29.2687 14.3509 31.3309L12.3176 35.1471C12.3163 35.1494 12.3152 35.1514 12.3139 35.1538L8.5162 42.2812H7.20868C6.73401 42.2812 6.3493 42.6663 6.3493 43.1406C6.3493 43.6153 6.73401 44 7.20868 44H10.8553C11.33 44 11.7147 43.6153 11.7147 43.1406C11.7147 42.6663 11.33 42.2812 10.8553 42.2812H10.4636L13.5875 36.419H30.5669L33.6905 42.2812H33.0943C32.62 42.2812 32.235 42.6663 32.235 43.1406C32.235 43.6153 32.62 44 33.0943 44H36.741C37.2156 44 37.6003 43.6153 37.6003 43.1406C37.6003 42.6663 37.2156 42.2812 36.741 42.2812H35.6382L31.8398 35.1534C31.8388 35.1514 31.8378 35.1494 31.8368 35.1474L29.7569 31.2443C33.5032 29.1697 36.3405 25.6469 37.508 21.4367H41.0278C41.5021 21.4367 41.8871 21.0516 41.8871 20.5773C41.8871 20.1026 41.5024 19.7179 41.0278 19.7179ZM14.5033 34.7003L15.9072 32.0651C17.7813 32.8294 19.8294 33.2517 21.9748 33.2517C24.1844 33.2517 26.2912 32.8046 28.2103 31.9962L29.6511 34.7003H14.5033ZM21.9748 31.533C14.324 31.533 8.04758 25.5352 7.60178 17.9941H36.3479C35.9021 25.5352 29.6259 31.533 21.9748 31.533ZM37.2405 16.2754H6.70917C6.25833 16.2754 5.89142 15.9085 5.89142 15.4573C5.89142 15.0065 6.25833 14.6396 6.70917 14.6396H37.2405C37.6917 14.6396 38.0586 15.0065 38.0586 15.4573C38.0586 15.9085 37.6917 16.2754 37.2405 16.2754Z" fill="#FFB800"/>
<path d="M21.9746 30.0207C26.438 30.0207 30.5224 27.7551 32.9008 23.9604C33.1529 23.5582 33.0313 23.0278 32.6288 22.7757C32.2267 22.5236 31.6963 22.6455 31.4445 23.0477C29.3824 26.3374 25.8425 28.3019 21.9746 28.3019C21.4999 28.3019 21.1152 28.6866 21.1152 29.1613C21.1152 29.6356 21.4999 30.0207 21.9746 30.0207Z" fill="#FFB800"/>
<path d="M32.7624 20.6898C32.9024 21.0251 33.2465 21.2416 33.6097 21.2185C33.9541 21.1963 34.2566 20.9637 34.3687 20.6374C34.4889 20.2879 34.3623 19.8848 34.0629 19.6679C33.7863 19.4672 33.4076 19.449 33.1142 19.6243C32.7537 19.8398 32.6009 20.3017 32.7624 20.6898Z" fill="#FFB800"/>
</svg>
