<svg width="15" height="15" viewBox="0 0 15 15" fill="none" xmlns="http://www.w3.org/2000/svg">
<g clip-path="url(#clip0)">
<path d="M12.366 14.0151C12.3058 14.0151 12.2456 14.0151 12.1854 14.0151C10.2585 13.7742 8.33159 13.1119 6.70578 12.0882C5.20041 11.1248 3.87567 9.80003 2.91223 8.29465C1.82836 6.66884 1.166 4.74196 0.985352 2.81508C0.985352 2.33336 1.10578 1.85164 1.40686 1.49035C1.70793 1.12906 2.12944 0.8882 2.61116 0.827984C2.67137 0.827984 2.73159 0.827984 2.7918 0.827984H4.59825C5.50148 0.827984 6.28428 1.49035 6.40471 2.39358C6.46492 2.93551 6.58535 3.47745 6.766 3.95917C7.00686 4.62153 6.82621 5.34411 6.34449 5.88605L5.92299 6.30755C6.64557 7.39143 7.54879 8.35487 8.69288 9.07745L9.11438 8.65594C9.5961 8.17422 10.3789 7.99358 11.0413 8.23444C11.523 8.41508 12.0649 8.53551 12.6069 8.59573C13.5101 8.71616 14.1724 9.49895 14.1724 10.4022V12.2086C14.1724 12.6903 13.9918 13.1721 13.6305 13.4731C13.2692 13.7742 12.8477 14.0151 12.366 14.0151ZM4.59825 2.03229H2.7918C2.61116 2.03229 2.43051 2.15272 2.31008 2.27315C2.24987 2.39358 2.18965 2.51401 2.18965 2.69465C2.3703 4.44089 2.97245 6.12691 3.93589 7.63229C4.83911 9.01723 5.9832 10.2215 7.36815 11.0645C8.87352 12.028 10.5595 12.6301 12.3058 12.8108C12.5466 12.8108 12.6671 12.7506 12.7875 12.6301C12.9079 12.5097 12.9681 12.3893 12.9681 12.2086V10.4022C12.9681 10.1011 12.7273 9.86024 12.4262 9.80003C11.8241 9.73981 11.2219 9.55917 10.6198 9.31831C10.3789 9.25809 10.138 9.25809 9.95739 9.43874L9.1746 10.2215C8.99395 10.4022 8.69288 10.4624 8.45202 10.342C6.82621 9.43874 5.50148 8.11401 4.59825 6.4882C4.53804 6.24734 4.59825 5.94626 4.7789 5.76562L5.5617 4.98282C5.68213 4.86239 5.74234 4.56132 5.68213 4.38067C5.44127 3.77852 5.32084 3.17637 5.20041 2.57422C5.20041 2.27315 4.89933 2.03229 4.59825 2.03229ZM11.7638 6.24734C11.4628 6.24734 11.2219 6.06669 11.1617 5.76562C10.981 4.80218 10.1983 4.0796 9.23481 3.83874C8.93374 3.77852 8.69288 3.47745 8.75309 3.11616C8.81331 2.81508 9.11438 2.57422 9.47567 2.63444C10.9208 2.93551 12.0649 4.01938 12.3058 5.46454C12.366 5.76562 12.1854 6.12691 11.8241 6.18712C11.8241 6.18712 11.8241 6.24734 11.7638 6.24734ZM14.1724 6.18712C13.8714 6.18712 13.6305 5.94626 13.5703 5.64519C13.3294 3.41723 11.5832 1.671 9.29503 1.36992C8.99395 1.3097 8.75309 1.00863 8.75309 0.707554C8.75309 0.406479 9.11438 0.165619 9.41546 0.165619C12.2456 0.466694 14.4133 2.63444 14.7144 5.46454C14.7746 5.76562 14.5337 6.06669 14.1724 6.12691C14.2327 6.18712 14.1724 6.18712 14.1724 6.18712Z" fill="white"/>
</g>
<defs>
<clipPath id="clip0">
<rect width="14.4516" height="14.4516" fill="white" transform="translate(0.323242 0.22583)"/>
</clipPath>
</defs>
</svg>
