<svg width="16" height="16" viewBox="0 0 16 16" fill="none" xmlns="http://www.w3.org/2000/svg">
<path d="M13.3106 2.78191C12.0892 1.01409 10.1533 0 7.99985 0C5.84638 0 3.91054 1.01409 2.68907 2.78191C1.4736 4.54078 1.19294 6.76756 1.93682 8.73491C2.13579 9.27216 2.45207 9.79412 2.87463 10.2832L7.57394 15.8031C7.68022 15.928 7.83594 16 7.99985 16C8.16376 16 8.31948 15.928 8.42576 15.8031L13.1238 10.2847C13.5482 9.79281 13.8641 9.27141 14.0614 8.73847C14.8068 6.76756 14.5261 4.54078 13.3106 2.78191ZM13.0138 8.34666C12.8616 8.75784 12.6132 9.16438 12.2759 9.55541C12.2749 9.55634 12.274 9.55728 12.2732 9.55841L7.99985 14.5777L3.72385 9.55525C3.38669 9.16456 3.13829 8.75806 2.98463 8.34294C2.36944 6.71591 2.60291 4.87478 3.60935 3.41819C4.61894 1.95694 6.21932 1.11888 7.99985 1.11888C9.78035 1.11888 11.3805 1.95691 12.3902 3.41819C13.3968 4.87478 13.6304 6.71591 13.0138 8.34666Z" fill="#FFB800"/>
<path d="M8.00006 3.31934C6.27269 3.31934 4.86719 4.72465 4.86719 6.45221C4.86719 8.17977 6.2725 9.58509 8.00006 9.58509C9.72763 9.58509 11.1329 8.17977 11.1329 6.45221C11.1329 4.72484 9.72744 3.31934 8.00006 3.31934ZM8.00006 8.46618C6.88956 8.46618 5.98606 7.56268 5.98606 6.45218C5.98606 5.34168 6.88956 4.43818 8.00006 4.43818C9.11056 4.43818 10.0141 5.34168 10.0141 6.45218C10.0141 7.56268 9.11056 8.46618 8.00006 8.46618Z" fill="#FFB800"/>
</svg>
