<svg width="30" height="30" viewBox="0 0 30 30" fill="none" xmlns="http://www.w3.org/2000/svg">
<g clip-path="url(#clip0)">
<path d="M25.2939 4.93356C24.3653 4.81614 23.4578 4.61015 22.597 4.32153C22.3667 4.24439 22.1177 4.36845 22.0406 4.59847C21.9634 4.82873 22.0875 5.07775 22.3175 5.15489C23.2333 5.46205 24.1976 5.68086 25.1838 5.8056C26.6629 5.99283 27.7185 7.35788 27.5367 8.84836C27.2985 10.803 26.8622 13.7206 26.1371 16.5194C25.3472 19.5678 24.4203 21.6889 23.3818 22.8237C21.2493 25.1539 18.5758 27.2194 16.7085 28.5416C15.7273 29.2365 14.4089 29.2365 13.428 28.5416C11.5607 27.2194 8.88716 25.1539 6.75467 22.8237C5.71623 21.6889 4.78902 19.5678 3.99938 16.5194C3.27428 13.7206 2.83803 10.803 2.59954 8.84836C2.41803 7.35788 3.47341 5.99283 4.95268 5.8056C9.21652 5.26635 12.0425 3.12401 13.6626 1.42182C14.0318 1.03409 14.5309 0.820314 15.0681 0.820314C15.6053 0.820314 16.1045 1.03409 16.4739 1.42182C17.641 2.64817 18.99 3.64816 20.4835 4.39408C20.7005 4.50257 20.9646 4.41445 21.0731 4.19724C21.1814 3.98003 21.0932 3.71613 20.8762 3.60787C19.4741 2.90749 18.2073 1.96816 17.1104 0.815966C16.5737 0.252 15.8484 -0.0585938 15.0681 -0.0585938C14.2879 -0.0585938 13.5625 0.252 13.0258 0.815966C11.5042 2.41471 8.8494 4.42681 4.84235 4.93356C2.88449 5.18121 1.48694 6.98526 1.72704 8.95479C2.13628 12.3116 3.38231 20.4406 6.10624 23.4172C8.29115 25.8046 11.0176 27.9117 12.9198 29.2589C13.5623 29.714 14.3151 29.9415 15.0681 29.9415C15.8209 29.9412 16.5739 29.714 17.2164 29.2589C19.1187 27.9117 21.8451 25.8046 24.03 23.4172C26.7542 20.4406 28 12.3116 28.4092 8.95479C28.6493 6.98526 27.2518 5.18121 25.2939 4.93356Z" fill="#4F4F4F"/>
<path d="M14.0755 4.0696C11.8523 5.99336 9.25704 7.25244 6.36191 7.81182C5.4798 7.98234 4.88425 8.81639 5.00601 9.71086C5.21086 11.2148 5.62971 14.0276 6.13211 15.9667C7.04787 19.502 7.93341 20.848 8.37973 21.3356C9.84687 22.9387 12.5692 25.0808 14.0613 26.2149C14.3575 26.4399 14.7122 26.5522 15.067 26.5522C15.4218 26.5522 15.7765 26.4399 16.0727 26.2149C17.5648 25.0808 20.2871 22.9387 21.7542 21.3356C22.2006 20.848 23.0861 19.502 24.0019 15.9667C24.5045 14.0271 24.9231 11.2146 25.1282 9.71086C25.25 8.81639 24.6542 7.98234 23.7721 7.81182C20.8769 7.25244 18.2816 5.99336 16.0585 4.0696C15.4932 3.58048 14.6408 3.58048 14.0755 4.0696ZM24.2573 9.59207C24.055 11.0768 23.6423 13.8504 23.1511 15.7463C22.2253 19.32 21.3516 20.4736 21.106 20.7423C19.6323 22.3525 16.7232 24.6164 15.5408 25.515C15.2618 25.7271 14.8722 25.7271 14.5932 25.515C13.4108 24.6164 10.5017 22.3523 9.02816 20.7423C8.78234 20.4736 7.90869 19.32 6.98287 15.7463C6.49191 13.8509 6.07924 11.0771 5.87691 9.59207C5.81786 9.15971 6.10419 8.75688 6.52854 8.67471C9.57702 8.0858 12.3096 6.76011 14.6507 4.73427C14.7692 4.63151 14.9182 4.58001 15.067 4.58001C15.2158 4.58001 15.3648 4.63151 15.4833 4.73427C17.8243 6.76011 20.557 8.0858 23.6054 8.67471C24.0298 8.75688 24.3161 9.15971 24.2573 9.59207Z" fill="#F2994A"/>
<path d="M12.6301 13.6563C12.2996 13.3871 11.1841 12.8314 10.3853 13.8868C9.58669 14.9419 10.2852 15.8625 10.6157 16.1317L11.8902 17.1685C12.0783 17.3216 12.3553 17.2935 12.5084 17.1051C12.6615 16.9167 12.6331 16.64 12.445 16.4867L11.1706 15.4498C11.0222 15.329 10.6981 14.9355 11.0671 14.4414C11.4361 13.9475 11.927 14.2171 12.0753 14.3379L14.7141 16.4851C14.8883 16.6267 15.1412 16.6144 15.3007 16.4562L19.1622 12.6309C19.4431 12.3526 19.8976 12.3549 20.1759 12.6357C20.454 12.9163 20.4517 13.3711 20.1711 13.6492L15.5717 18.2058C15.2076 18.5569 14.8066 18.4107 14.615 18.2525L13.8849 17.6585C13.6965 17.5054 13.4198 17.5338 13.2664 17.7219C13.1133 17.9101 13.1417 18.187 13.3301 18.3402L14.0602 18.9343C14.3438 19.165 14.7013 19.2923 15.0671 19.2923C15.4907 19.2923 15.8897 19.1282 16.1904 18.8302L20.7896 14.2738C21.4146 13.6545 21.4195 12.6421 20.8001 12.0171C20.181 11.3922 19.1686 11.3874 18.5435 12.0065L14.9625 15.5542L12.6301 13.6563Z" fill="#F2994A"/>
</g>
<defs>
<clipPath id="clip0">
<rect width="30" height="30" fill="white"/>
</clipPath>
</defs>
</svg>
