<svg width="46" height="46" viewBox="0 0 46 46" fill="none" xmlns="http://www.w3.org/2000/svg">
<path d="M25.1562 28.0312H20.8438C20.6531 28.0312 20.4703 27.9555 20.3355 27.8207C20.2007 27.6859 20.125 27.5031 20.125 27.3125V24.615C20.0215 24.5741 19.9216 24.5324 19.8238 24.49L17.9163 26.3975C17.7815 26.5323 17.5987 26.6081 17.4081 26.6081C17.2175 26.6081 17.0347 26.5323 16.9 26.3975L13.8525 23.35C13.7177 23.2152 13.642 23.0325 13.642 22.8419C13.642 22.6513 13.7177 22.4685 13.8525 22.3337L15.76 20.4254C15.7169 20.3284 15.6759 20.2285 15.635 20.125H12.9375C12.7469 20.125 12.5641 20.0493 12.4293 19.9145C12.2945 19.7797 12.2188 19.5969 12.2188 19.4062V15.0938C12.2188 14.9031 12.2945 14.7203 12.4293 14.5855C12.5641 14.4507 12.7469 14.375 12.9375 14.375H15.635C15.6759 14.2715 15.7169 14.1716 15.76 14.0738L13.8525 12.1663C13.7177 12.0315 13.642 11.8487 13.642 11.6581C13.642 11.4675 13.7177 11.2848 13.8525 11.15L16.9 8.10247C17.0373 7.97261 17.2191 7.90025 17.4081 7.90025C17.5971 7.90025 17.779 7.97261 17.9163 8.10247L19.8238 10.01C19.9216 9.96763 20.0215 9.92594 20.125 9.88497V7.1875C20.125 6.99688 20.2007 6.81406 20.3355 6.67927C20.4703 6.54448 20.6531 6.46875 20.8438 6.46875H25.1562C25.3469 6.46875 25.5297 6.54448 25.6645 6.67927C25.7993 6.81406 25.875 6.99688 25.875 7.1875V9.88497C25.9785 9.92594 26.0784 9.96763 26.1762 10.01L28.0837 8.10247C28.2185 7.96767 28.4013 7.89192 28.5919 7.89187C28.7825 7.89192 28.9653 7.96767 29.1 8.10247L32.1475 11.15C32.2823 11.2848 32.358 11.4675 32.358 11.6581C32.358 11.8487 32.2823 12.0315 32.1475 12.1663L30.24 14.0738C30.2831 14.1716 30.3241 14.2715 30.365 14.375H33.0625C33.2531 14.375 33.4359 14.4507 33.5707 14.5855C33.7055 14.7203 33.7812 14.9031 33.7812 15.0938V19.4062C33.7812 19.5969 33.7055 19.7797 33.5707 19.9145C33.4359 20.0493 33.2531 20.125 33.0625 20.125H30.365C30.3241 20.2285 30.2831 20.3284 30.24 20.4254L32.1475 22.3337C32.2823 22.4685 32.358 22.6513 32.358 22.8419C32.358 23.0325 32.2823 23.2152 32.1475 23.35L29.1 26.3975C28.9627 26.5274 28.7809 26.5997 28.5919 26.5997C28.4029 26.5997 28.221 26.5274 28.0837 26.3975L26.1762 24.49C26.0784 24.5324 25.9785 24.5741 25.875 24.615V27.3125C25.875 27.5031 25.7993 27.6859 25.6645 27.8207C25.5297 27.9555 25.3469 28.0312 25.1562 28.0312ZM21.5625 26.5938H24.4375V24.1069C24.4375 23.9548 24.4857 23.8066 24.5752 23.6837C24.6647 23.5607 24.7909 23.4693 24.9356 23.4226C25.2953 23.3116 25.6433 23.1659 25.9749 22.9878C26.1113 22.913 26.2682 22.8845 26.4222 22.9065C26.5762 22.9286 26.7188 23 26.8288 23.11L28.5919 24.8731L30.6223 22.8419L28.86 21.0788C28.7501 20.9689 28.6788 20.8264 28.6568 20.6725C28.6348 20.5187 28.6632 20.3619 28.7378 20.2256C28.9155 19.8938 29.0611 19.5458 29.1726 19.1863C29.2192 19.0414 29.3105 18.9151 29.4335 18.8254C29.5565 18.7358 29.7047 18.6875 29.8569 18.6875H32.3438V15.8125H29.8569C29.7047 15.8125 29.5565 15.7642 29.4335 15.6746C29.3105 15.5849 29.2192 15.4586 29.1726 15.3137C29.0611 14.9542 28.9155 14.6062 28.7378 14.2744C28.6632 14.1381 28.6348 13.9813 28.6568 13.8275C28.6788 13.6736 28.7501 13.5311 28.86 13.4212L30.6223 11.6581L28.5919 9.62694L26.8288 11.39C26.7188 11.5 26.5762 11.5714 26.4222 11.5935C26.2682 11.6155 26.1113 11.587 25.9749 11.5122C25.6432 11.3353 25.2951 11.1909 24.9356 11.081C24.7903 11.0341 24.6637 10.9422 24.5741 10.8185C24.4845 10.6948 24.4367 10.5458 24.4375 10.3931V7.90625H21.5625V10.3931C21.5625 10.5452 21.5143 10.6934 21.4248 10.8163C21.3353 10.9393 21.2091 11.0307 21.0644 11.0774C20.7049 11.1873 20.3568 11.3317 20.0251 11.5086C19.8887 11.5834 19.7318 11.6119 19.5778 11.5899C19.4238 11.5678 19.2812 11.4964 19.1712 11.3864L17.4081 9.62694L15.3812 11.6581L17.1436 13.4212C17.2535 13.5311 17.3248 13.6736 17.3468 13.8275C17.3688 13.9813 17.3404 14.1381 17.2658 14.2744C17.0881 14.6062 16.9425 14.9542 16.831 15.3137C16.7842 15.4591 16.6923 15.5859 16.5686 15.6756C16.445 15.7653 16.2959 15.8133 16.1431 15.8125H13.6562V18.6875H16.1431C16.2953 18.6875 16.4435 18.7358 16.5665 18.8254C16.6895 18.9151 16.7808 19.0414 16.8274 19.1863C16.9389 19.5458 17.0845 19.8938 17.2622 20.2256C17.3368 20.3619 17.3652 20.5187 17.3432 20.6725C17.3212 20.8264 17.2499 20.9689 17.14 21.0788L15.3812 22.8419L17.4117 24.8731L19.1748 23.11C19.2848 23 19.4274 22.9286 19.5814 22.9065C19.7353 22.8845 19.8923 22.913 20.0287 22.9878C20.3603 23.1659 20.7083 23.3116 21.068 23.4226C21.2121 23.4699 21.3375 23.5616 21.4263 23.6845C21.5151 23.8074 21.5628 23.9552 21.5625 24.1069V26.5938Z" fill="#FFB800"/>
<path d="M23 21.5625C22.1471 21.5625 21.3133 21.3096 20.6041 20.8357C19.8949 20.3618 19.3422 19.6883 19.0158 18.9003C18.6894 18.1123 18.604 17.2452 18.7704 16.4087C18.9368 15.5721 19.3475 14.8037 19.9506 14.2006C20.5537 13.5975 21.3221 13.1868 22.1587 13.0204C22.9952 12.854 23.8623 12.9394 24.6503 13.2658C25.4383 13.5922 26.1119 14.1449 26.5857 14.8541C27.0596 15.5633 27.3125 16.3971 27.3125 17.25C27.3114 18.3934 26.8566 19.4896 26.0481 20.2981C25.2396 21.1066 24.1434 21.5614 23 21.5625ZM23 14.375C22.4314 14.375 21.8755 14.5436 21.4027 14.8595C20.9299 15.1754 20.5615 15.6244 20.3438 16.1498C20.1262 16.6751 20.0693 17.2532 20.1802 17.8109C20.2912 18.3686 20.565 18.8809 20.9671 19.2829C21.3691 19.685 21.8814 19.9588 22.4391 20.0698C22.9968 20.1807 23.5749 20.1238 24.1002 19.9062C24.6256 19.6886 25.0746 19.3201 25.3905 18.8473C25.7064 18.3745 25.875 17.8186 25.875 17.25C25.875 16.4875 25.5721 15.7562 25.0329 15.2171C24.4938 14.6779 23.7625 14.375 23 14.375Z" fill="#FFB800"/>
<path d="M40.25 33.0625C40.4406 33.0625 40.6234 32.9868 40.7582 32.852C40.893 32.7172 40.9688 32.5344 40.9688 32.3438V2.15625C40.9688 1.96563 40.893 1.78281 40.7582 1.64802C40.6234 1.51323 40.4406 1.4375 40.25 1.4375H9.34375C8.20035 1.43864 7.10412 1.89336 6.29561 2.70186C5.48711 3.51037 5.03239 4.6066 5.03125 5.75V35.9375C5.03239 37.0809 5.48711 38.1771 6.29561 38.9856C7.10412 39.7941 8.20035 40.2489 9.34375 40.25H11.5V43.8438C11.5 43.9859 11.5422 44.1248 11.6212 44.243C11.7002 44.3612 11.8124 44.4533 11.9437 44.5076C12.075 44.562 12.2195 44.5763 12.3589 44.5485C12.4983 44.5208 12.6264 44.4524 12.7269 44.3519L15.0938 41.9851L17.4606 44.3519C17.5611 44.4524 17.6892 44.5208 17.8286 44.5485C17.968 44.5763 18.1125 44.562 18.2438 44.5076C18.3751 44.4533 18.4873 44.3612 18.5663 44.243C18.6453 44.1248 18.6875 43.9859 18.6875 43.8438V40.25H40.25C40.4406 40.25 40.6234 40.1743 40.7582 40.0395C40.893 39.9047 40.9688 39.7219 40.9688 39.5313C40.9688 39.3406 40.893 39.1578 40.7582 39.023C40.6234 38.8882 40.4406 38.8125 40.25 38.8125C39.4875 38.8125 38.7562 38.5096 38.2171 37.9704C37.6779 37.4313 37.375 36.7 37.375 35.9375C37.375 35.175 37.6779 34.4437 38.2171 33.9046C38.7562 33.3654 39.4875 33.0625 40.25 33.0625ZM17.25 42.1087L15.6019 40.4606C15.4671 40.3259 15.2843 40.2502 15.0938 40.2502C14.9032 40.2502 14.7204 40.3259 14.5856 40.4606L12.9375 42.1087V36.6563H17.25V42.1087ZM37.0444 38.8125H18.6875V36.6563H33.7812C33.9719 36.6563 34.1547 36.5805 34.2895 36.4457C34.4243 36.3109 34.5 36.1281 34.5 35.9375C34.5 35.7469 34.4243 35.5641 34.2895 35.4293C34.1547 35.2945 33.9719 35.2188 33.7812 35.2188H8.625C8.43438 35.2188 8.25156 35.2945 8.11677 35.4293C7.98198 35.5641 7.90625 35.7469 7.90625 35.9375C7.90625 36.1281 7.98198 36.3109 8.11677 36.4457C8.25156 36.5805 8.43438 36.6563 8.625 36.6563H11.5V38.8125H9.34375C8.58125 38.8125 7.84998 38.5096 7.31082 37.9704C6.77165 37.4313 6.46875 36.7 6.46875 35.9375C6.46875 35.175 6.77165 34.4437 7.31082 33.9046C7.84998 33.3654 8.58125 33.0625 9.34375 33.0625H37.0444C36.332 33.8506 35.9375 34.8751 35.9375 35.9375C35.9375 36.9999 36.332 38.0244 37.0444 38.8125ZM9.34375 31.625C8.28258 31.6251 7.25879 32.0169 6.46875 32.7254V5.75C6.46875 4.9875 6.77165 4.25624 7.31082 3.71707C7.84998 3.1779 8.58125 2.875 9.34375 2.875H39.5312V31.625H9.34375Z" fill="#FFB800"/>
</svg>
