<svg width="41" height="41" viewBox="0 0 41 41" fill="none" xmlns="http://www.w3.org/2000/svg">
<g clip-path="url(#clip0)">
<path d="M40.921 22.3944C40.5528 18.6917 38.8986 15.2009 36.2629 12.5651C34.0104 10.3127 31.2535 8.86528 28.3525 8.22168V6.18702C29.5374 5.89225 30.4181 4.81975 30.4181 3.54496C30.4181 2.04364 29.1967 0.822266 27.6954 0.822266H21.9297C20.4283 0.822266 19.207 2.04364 19.207 3.54496C19.207 4.81967 20.0877 5.89217 21.2724 6.18702V8.22736C18.3804 8.87368 15.6325 10.3191 13.3865 12.5652C12.8949 13.0567 12.4417 13.5723 12.0268 14.1082C12.0067 14.1067 11.9866 14.1052 11.9661 14.1052H6.25956C5.81737 14.1052 5.45877 14.4637 5.45877 14.906C5.45877 15.3483 5.81737 15.7068 6.25956 15.7068H10.9372C10.35 16.6898 9.87659 17.7221 9.51623 18.7847H0.800794C0.358595 18.7847 0 19.1432 0 19.5855C0 20.0278 0.358595 20.3863 0.800794 20.3863H9.0637C8.83291 21.3994 8.70046 22.4304 8.66627 23.4643H5.12508C4.68288 23.4643 4.32429 23.8228 4.32429 24.2651C4.32429 24.7074 4.68288 25.0659 5.12508 25.0659H8.69181C8.7594 26.1024 8.92605 27.1335 9.19183 28.1439H4.00397C3.56177 28.1439 3.20317 28.5024 3.20317 28.9447C3.20317 29.387 3.56177 29.7455 4.00397 29.7455H9.7029C10.4885 31.8236 11.7162 33.7714 13.3865 35.4417C16.0248 38.08 19.5191 39.7346 23.2257 40.1008C23.7547 40.153 24.2841 40.1789 24.8128 40.1789C27.9376 40.1789 31.0227 39.2745 33.6405 37.5698C34.0112 37.3284 34.116 36.8324 33.8746 36.4617C33.6333 36.0911 33.1372 35.9863 32.7666 36.2277C27.0363 39.9591 19.3621 39.1523 14.519 34.3092C8.83636 28.6266 8.83636 19.3804 14.519 13.6977C20.2015 8.01524 29.4477 8.01524 35.1303 13.6977C39.9671 18.5345 40.7783 26.2022 37.0591 31.9297C36.8183 32.3006 36.9237 32.7966 37.2946 33.0374C37.6657 33.2783 38.1615 33.1728 38.4023 32.8019C40.3894 29.7416 41.2839 26.0456 40.921 22.3944ZM20.8085 3.54504C20.8085 2.92683 21.3114 2.42393 21.9297 2.42393H27.6954C28.3136 2.42393 28.8165 2.92683 28.8165 3.54504C28.8165 4.16326 28.3136 4.66616 27.6954 4.66616H27.5517H22.0732H21.9297C21.3114 4.66616 20.8085 4.16318 20.8085 3.54504ZM22.874 7.95205V6.26774H26.7509V7.94917C25.4636 7.79606 24.1611 7.79702 22.874 7.95205Z" fill="#FFB800"/>
<path d="M35.6973 34.0742C35.4859 34.0742 35.2801 34.1599 35.1312 34.3088C34.9814 34.4578 34.8965 34.6644 34.8965 34.875C34.8965 35.0856 34.9814 35.2922 35.1312 35.4412C35.2801 35.5909 35.4859 35.6758 35.6973 35.6758C35.9079 35.6758 36.1137 35.5909 36.2634 35.4412C36.4124 35.2922 36.498 35.0856 36.498 34.875C36.498 34.6644 36.4124 34.4578 36.2634 34.3088C36.1137 34.1599 35.9078 34.0742 35.6973 34.0742Z" fill="#FFB800"/>
<path d="M24.825 11.5801C17.9751 11.5801 12.4023 17.1528 12.4023 24.0027C12.4023 30.8526 17.9751 36.4253 24.825 36.4253C31.6748 36.4253 37.2476 30.8526 37.2476 24.0027C37.2476 17.1528 31.6748 11.5801 24.825 11.5801ZM24.825 34.8238C18.8582 34.8238 14.0039 29.9694 14.0039 24.0027C14.0039 18.036 18.8582 13.1817 24.825 13.1817C30.7918 13.1817 35.646 18.036 35.646 24.0027C35.646 29.9694 30.7918 34.8238 24.825 34.8238Z" fill="#FFB800"/>
<path d="M29.8909 17.8048L25.9245 21.7711C25.5928 21.6071 25.2198 21.5144 24.8254 21.5144C24.4309 21.5144 24.0579 21.6071 23.7262 21.7711L21.9511 19.996C21.6383 19.6833 21.1314 19.6833 20.8185 19.996C20.5058 20.3087 20.5058 20.8158 20.8185 21.1285L22.5936 22.9036C22.4296 23.2353 22.337 23.6084 22.337 24.0028C22.337 25.3748 23.4532 26.4911 24.8254 26.4911C26.1975 26.4911 27.3137 25.3748 27.3137 24.0028C27.3137 23.6084 27.2211 23.2353 27.0571 22.9036L30.907 19.0537L31.0233 18.9373C31.336 18.6246 31.336 18.1176 31.0233 17.8048C30.7106 17.4921 30.2037 17.4921 29.8909 17.8048ZM24.8254 24.8896C24.3364 24.8896 23.9386 24.4918 23.9386 24.0028C23.9386 23.5139 24.3364 23.116 24.8254 23.116C25.3143 23.116 25.7122 23.5139 25.7122 24.0028C25.7122 24.4918 25.3143 24.8896 24.8254 24.8896Z" fill="#FFB800"/>
<path d="M33.3865 23.2129H32.6445C32.2023 23.2129 31.8438 23.5714 31.8438 24.0137C31.8438 24.4559 32.2023 24.8145 32.6445 24.8145H33.3865C33.8287 24.8145 34.1872 24.4559 34.1872 24.0137C34.1872 23.5714 33.8287 23.2129 33.3865 23.2129Z" fill="#FFB800"/>
<path d="M17.0045 23.1934H16.2627C15.8205 23.1934 15.4619 23.5519 15.4619 23.9941C15.4619 24.4364 15.8205 24.7949 16.2627 24.7949H17.0045C17.4467 24.7949 17.8053 24.4364 17.8053 23.9941C17.8053 23.5519 17.4467 23.1934 17.0045 23.1934Z" fill="#FFB800"/>
<path d="M24.834 16.984C25.2762 16.984 25.6348 16.6255 25.6348 16.1832V15.4414C25.6348 14.9991 25.2762 14.6406 24.834 14.6406C24.3918 14.6406 24.0332 14.9991 24.0332 15.4414V16.1832C24.0332 16.6255 24.3918 16.984 24.834 16.984Z" fill="#FFB800"/>
<path d="M24.8145 31.0234C24.3723 31.0234 24.0137 31.3819 24.0137 31.8242V32.5661C24.0137 33.0083 24.3723 33.3669 24.8145 33.3669C25.2566 33.3669 25.6152 33.0083 25.6152 32.5661V31.8242C25.6152 31.3819 25.2566 31.0234 24.8145 31.0234Z" fill="#FFB800"/>
<path d="M0.800781 28.1445C0.590176 28.1445 0.383574 28.2302 0.234629 28.3792C0.0856836 28.5281 0 28.7347 0 28.9453C0 29.1567 0.0856035 29.3625 0.234629 29.5115C0.383654 29.6604 0.590176 29.7461 0.800781 29.7461C1.01139 29.7461 1.21799 29.6604 1.36685 29.5115C1.5158 29.3625 1.60156 29.1559 1.60156 28.9453C1.60156 28.7347 1.51588 28.5281 1.36685 28.3792C1.21799 28.2302 1.01139 28.1445 0.800781 28.1445Z" fill="#FFB800"/>
</g>
<defs>
<clipPath id="clip0">
<rect width="41" height="41" fill="white"/>
</clipPath>
</defs>
</svg>
