<svg width="41" height="41" viewBox="0 0 41 41" fill="none" xmlns="http://www.w3.org/2000/svg">
<path d="M39.7188 22.4219C39.8887 22.4219 40.0516 22.3544 40.1717 22.2342C40.2919 22.1141 40.3594 21.9512 40.3594 21.7812V17.9375C40.3594 17.7676 40.2919 17.6046 40.1717 17.4845C40.0516 17.3644 39.8887 17.2969 39.7188 17.2969H35.1364L32.6629 2.45744C32.638 2.30785 32.5609 2.17194 32.4452 2.07387C32.3296 1.9758 32.1829 1.92194 32.0312 1.92188H8.96875C8.81711 1.92194 8.67041 1.9758 8.55475 2.07387C8.43909 2.17194 8.36196 2.30785 8.33709 2.45744L5.86364 17.2969H1.28125C1.11135 17.2969 0.9484 17.3644 0.82826 17.4845C0.708119 17.6046 0.640625 17.7676 0.640625 17.9375V21.7812C0.640625 21.9512 0.708119 22.1141 0.82826 22.2342C0.9484 22.3544 1.11135 22.4219 1.28125 22.4219H2.5625V37.7969H1.28125C1.11135 37.7969 0.9484 37.8644 0.82826 37.9845C0.708119 38.1046 0.640625 38.2676 0.640625 38.4375C0.640625 38.6074 0.708119 38.7704 0.82826 38.8905C0.9484 39.0106 1.11135 39.0781 1.28125 39.0781H39.7188C39.8887 39.0781 40.0516 39.0106 40.1717 38.8905C40.2919 38.7704 40.3594 38.6074 40.3594 38.4375C40.3594 38.2676 40.2919 38.1046 40.1717 37.9845C40.0516 37.8644 39.8887 37.7969 39.7188 37.7969H38.4375V22.4219H39.7188ZM9.51136 3.20312H31.4886L33.8372 17.2969H7.16283L9.51136 3.20312ZM1.92188 18.5781H39.0781V21.1406H1.92188V18.5781ZM26.2656 25.625H14.7344V22.4219H26.2656V25.625ZM13.4531 22.4219V25.625H3.84375V22.4219H13.4531ZM3.84375 26.9062H7.6875V32.0312H3.84375V26.9062ZM3.84375 33.3125H7.6875V37.7969H3.84375V33.3125ZM19.8594 35.285C20.0052 34.7531 20.2206 34.2428 20.5 33.7673C20.7691 34.2365 20.984 34.7347 21.1406 35.2523C21.1428 35.3364 21.1283 35.4202 21.0981 35.4987C21.0679 35.5773 21.0225 35.6491 20.9645 35.7101C20.8475 35.8333 20.6862 35.9049 20.5163 35.9093C20.3464 35.9136 20.1818 35.8503 20.0586 35.7332C19.9354 35.6161 19.8637 35.4549 19.8594 35.285ZM22.4219 35.2036C22.3693 34.5303 21.6531 33.1536 21.0567 32.1139C21.0006 32.0161 20.9197 31.9348 20.8221 31.8782C20.7245 31.8217 20.6137 31.7919 20.501 31.7919C20.3882 31.7919 20.2774 31.8217 20.1798 31.8782C20.0822 31.9348 20.0013 32.0161 19.9452 32.1139C19.3507 33.1479 18.6326 34.5207 18.5781 35.2344C18.5788 35.6772 18.7321 36.1062 19.0121 36.4491C19.2922 36.7921 19.6819 37.028 20.1156 37.1172C19.5113 37.0255 18.9596 36.7208 18.5602 36.258C18.1607 35.7953 17.9399 35.205 17.9375 34.5938C17.9375 33.6091 19.3469 31.1164 20.5 29.3406C21.6531 31.1171 23.0625 33.6098 23.0625 34.5938C23.0602 35.2045 22.8399 35.7943 22.4413 36.2569C22.0427 36.7196 21.4919 37.0247 20.8882 37.1172C21.3261 37.0255 21.7185 36.7846 21.9983 36.4355C22.2781 36.0864 22.4278 35.6509 22.4219 35.2036ZM22.6205 37.7969C23.1498 37.4467 23.5843 36.971 23.885 36.412C24.1857 35.8531 24.3433 35.2284 24.3438 34.5938C24.3438 32.6802 21.3668 28.3156 21.0272 27.8236C20.9651 27.7428 20.8853 27.6774 20.7939 27.6323C20.7025 27.5873 20.6019 27.5639 20.5 27.5639C20.3981 27.5639 20.2975 27.5873 20.2061 27.6323C20.1147 27.6774 20.0349 27.7428 19.9728 27.8236C19.6332 28.3156 16.6562 32.6802 16.6562 34.5938C16.6567 35.2284 16.8143 35.8531 17.115 36.412C17.4157 36.971 17.8502 37.4467 18.3795 37.7969H8.96875V26.9062H32.0312V37.7969H22.6205ZM37.1562 26.9062V32.0312H33.3125V26.9062H37.1562ZM33.3125 33.3125H37.1562V37.7969H33.3125V33.3125ZM37.1562 25.625H27.5469V22.4219H37.1562V25.625Z" fill="#FFB800"/>
<path d="M6.40625 20.5C6.57615 20.5 6.7391 20.4325 6.85924 20.3124C6.97938 20.1922 7.04688 20.0293 7.04688 19.8594C7.04688 19.6895 6.97938 19.5265 6.85924 19.4064C6.7391 19.2862 6.57615 19.2188 6.40625 19.2188H3.20312C3.03322 19.2188 2.87028 19.2862 2.75013 19.4064C2.62999 19.5265 2.5625 19.6895 2.5625 19.8594C2.5625 20.0293 2.62999 20.1922 2.75013 20.3124C2.87028 20.4325 3.03322 20.5 3.20312 20.5H6.40625Z" fill="#FFB800"/>
<path d="M8.32812 20.5H8.96875C9.13865 20.5 9.3016 20.4325 9.42174 20.3124C9.54188 20.1922 9.60938 20.0293 9.60938 19.8594C9.60938 19.6895 9.54188 19.5265 9.42174 19.4064C9.3016 19.2862 9.13865 19.2188 8.96875 19.2188H8.32812C8.15822 19.2188 7.99528 19.2862 7.87513 19.4064C7.75499 19.5265 7.6875 19.6895 7.6875 19.8594C7.6875 20.0293 7.75499 20.1922 7.87513 20.3124C7.99528 20.4325 8.15822 20.5 8.32812 20.5Z" fill="#FFB800"/>
<path d="M27.5469 11.5312H13.4531C13.2832 11.5312 13.1203 11.5987 13.0001 11.7189C12.88 11.839 12.8125 12.002 12.8125 12.1719V14.7344C12.8125 14.9043 12.88 15.0672 13.0001 15.1874C13.1203 15.3075 13.2832 15.375 13.4531 15.375H27.5469C27.7168 15.375 27.8797 15.3075 27.9999 15.1874C28.12 15.0672 28.1875 14.9043 28.1875 14.7344V12.1719C28.1875 12.002 28.12 11.839 27.9999 11.7189C27.8797 11.5987 27.7168 11.5312 27.5469 11.5312ZM26.9062 14.0938H14.0938V12.8125H26.9062V14.0938Z" fill="#FFB800"/>
<path d="M19.2188 10.8906H21.7812C21.9512 10.8906 22.1141 10.8231 22.2342 10.703C22.3544 10.5829 22.4219 10.4199 22.4219 10.25C22.4219 10.0801 22.3544 9.91715 22.2342 9.79701C22.1141 9.67687 21.9512 9.60938 21.7812 9.60938H19.2188C19.0488 9.60938 18.8859 9.67687 18.7658 9.79701C18.6456 9.91715 18.5781 10.0801 18.5781 10.25C18.5781 10.4199 18.6456 10.5829 18.7658 10.703C18.8859 10.8231 19.0488 10.8906 19.2188 10.8906Z" fill="#FFB800"/>
</svg>
