<svg width="30" height="30" viewBox="0 0 30 30" fill="none" xmlns="http://www.w3.org/2000/svg">
<g clip-path="url(#clip0)">
<path d="M29.5163 16.4283C27.6517 16.4283 26.134 14.9106 26.134 13.046V12.5628H21.3021V0H5.15696L0.0419922 5.11497V28.0247H19.5371C20.428 28.7934 21.4413 29.4384 22.5613 29.9183L22.7517 29.9999L22.9421 29.9183C27.2294 28.0814 29.9995 23.8799 29.9995 19.2158V16.4283H29.5163ZM1.69162 4.83185L4.87384 1.64962V4.83185H1.69162ZM2.9411 5.79822H5.84021V2.89911H18.403V7.73096H2.9411V5.79822ZM1.00836 5.79822H1.97473V8.69733H19.3694V1.93274H5.84021V0.96637H20.3358V12.5628H19.3694V13.046C19.3694 14.9106 17.8517 16.4283 15.9871 16.4283H15.5039V19.2158C15.5039 22.181 16.6269 24.956 18.5436 27.0584H1.00836V5.79822ZM29.0331 19.2158C29.0331 23.4239 26.5747 27.2202 22.7517 28.9468C18.9287 27.2207 16.4703 23.4239 16.4703 19.2158V17.368C18.4828 17.1448 20.0854 15.5421 20.3086 13.5297H25.1943C25.4175 15.5421 27.0201 17.1448 29.0326 17.368V19.2158H29.0331Z" fill="#4F4F4F"/>
<path d="M24.8316 19.5652L26.0946 16.6182L25.2065 16.2379L23.9879 19.0816C23.6043 18.9304 23.1884 18.8442 22.7514 18.8442C20.8869 18.8442 19.3691 20.362 19.3691 22.2265C19.3691 24.0911 20.8869 25.6088 22.7514 25.6088C24.616 25.6088 26.1337 24.0911 26.1337 22.2265C26.1337 21.1462 25.6225 20.185 24.8316 19.5652ZM22.7514 24.6425C21.4194 24.6425 20.3355 23.5586 20.3355 22.2265C20.3355 20.8945 21.4194 19.8106 22.7514 19.8106C23.053 19.8106 23.3389 19.8729 23.6053 19.9743L22.536 22.4686L21.5697 21.8245L21.0336 22.6286L22.9664 23.9172L24.432 20.4972C24.8842 20.9365 25.1674 21.5482 25.1674 22.2265C25.1674 23.5586 24.0835 24.6425 22.7514 24.6425Z" fill="#F2994A"/>
<path d="M1.97559 26.092H14.5384V17.3947H1.97559V26.092ZM2.94196 18.361H13.572V25.1256H2.94196V18.361Z" fill="#F2994A"/>
<path d="M1.97559 11.5964H14.5384V12.5628H1.97559V11.5964Z" fill="#F2994A"/>
<path d="M1.97559 13.5292H14.5384V14.4955H1.97559V13.5292Z" fill="#F2994A"/>
</g>
<defs>
<clipPath id="clip0">
<rect width="30" height="30" fill="white"/>
</clipPath>
</defs>
</svg>
